<?xml version="1.0" encoding="utf-8" standalone="no"?>
<!DOCTYPE svg PUBLIC "-//W3C//DTD SVG 1.1//EN"
  "http://www.w3.org/Graphics/SVG/1.1/DTD/svg11.dtd">
<svg xmlns:xlink="http://www.w3.org/1999/xlink" width="712.370312pt" height="849.51625pt" viewBox="0 0 712.370312 849.51625" xmlns="http://www.w3.org/2000/svg" version="1.1">
 <metadata>
  <rdf:RDF xmlns:dc="http://purl.org/dc/elements/1.1/" xmlns:cc="http://creativecommons.org/ns#" xmlns:rdf="http://www.w3.org/1999/02/22-rdf-syntax-ns#">
   <cc:Work>
    <dc:type rdf:resource="http://purl.org/dc/dcmitype/StillImage"/>
    <dc:date>2025-06-18T20:01:50.257272</dc:date>
    <dc:format>image/svg+xml</dc:format>
    <dc:creator>
     <cc:Agent>
      <dc:title>Matplotlib v3.9.4, https://matplotlib.org/</dc:title>
     </cc:Agent>
    </dc:creator>
   </cc:Work>
  </rdf:RDF>
 </metadata>
 <defs>
  <style type="text/css">*{stroke-linejoin: round; stroke-linecap: butt}</style>
 </defs>
 <g id="figure_1">
  <g id="patch_1">
   <path d="M 0 849.51625 
L 712.370312 849.51625 
L 712.370312 0 
L 0 0 
z
" style="fill: #ffffff"/>
  </g>
  <g id="axes_1">
   <g id="patch_2">
    <path d="M 55.345313 302.16 
L 705.170313 302.16 
L 705.170313 76.92 
L 55.345313 76.92 
z
" style="fill: #ffffff"/>
   </g>
   <g id="matplotlib.axis_1">
    <g id="xtick_1">
     <g id="line2d_1">
      <path d="M 84.882812 302.16 
L 84.882812 76.92 
" clip-path="url(#pc49a695ded)" style="fill: none; stroke-dasharray: 2.96,1.28; stroke-dashoffset: 0; stroke: #b0b0b0; stroke-opacity: 0.6; stroke-width: 0.8"/>
     </g>
     <g id="line2d_2">
      <defs>
       <path id="m5a7c05adfe" d="M 0 0 
L 0 3.5 
" style="stroke: #000000; stroke-width: 0.8"/>
      </defs>
      <g>
       <use xlink:href="#m5a7c05adfe" x="84.882812" y="302.16" style="stroke: #000000; stroke-width: 0.8"/>
      </g>
     </g>
    </g>
    <g id="xtick_2">
     <g id="line2d_3">
      <path d="M 205.444037 302.16 
L 205.444037 76.92 
" clip-path="url(#pc49a695ded)" style="fill: none; stroke-dasharray: 2.96,1.28; stroke-dashoffset: 0; stroke: #b0b0b0; stroke-opacity: 0.6; stroke-width: 0.8"/>
     </g>
     <g id="line2d_4">
      <g>
       <use xlink:href="#m5a7c05adfe" x="205.444037" y="302.16" style="stroke: #000000; stroke-width: 0.8"/>
      </g>
     </g>
    </g>
    <g id="xtick_3">
     <g id="line2d_5">
      <path d="M 326.005261 302.16 
L 326.005261 76.92 
" clip-path="url(#pc49a695ded)" style="fill: none; stroke-dasharray: 2.96,1.28; stroke-dashoffset: 0; stroke: #b0b0b0; stroke-opacity: 0.6; stroke-width: 0.8"/>
     </g>
     <g id="line2d_6">
      <g>
       <use xlink:href="#m5a7c05adfe" x="326.005261" y="302.16" style="stroke: #000000; stroke-width: 0.8"/>
      </g>
     </g>
    </g>
    <g id="xtick_4">
     <g id="line2d_7">
      <path d="M 446.566486 302.16 
L 446.566486 76.92 
" clip-path="url(#pc49a695ded)" style="fill: none; stroke-dasharray: 2.96,1.28; stroke-dashoffset: 0; stroke: #b0b0b0; stroke-opacity: 0.6; stroke-width: 0.8"/>
     </g>
     <g id="line2d_8">
      <g>
       <use xlink:href="#m5a7c05adfe" x="446.566486" y="302.16" style="stroke: #000000; stroke-width: 0.8"/>
      </g>
     </g>
    </g>
    <g id="xtick_5">
     <g id="line2d_9">
      <path d="M 567.12771 302.16 
L 567.12771 76.92 
" clip-path="url(#pc49a695ded)" style="fill: none; stroke-dasharray: 2.96,1.28; stroke-dashoffset: 0; stroke: #b0b0b0; stroke-opacity: 0.6; stroke-width: 0.8"/>
     </g>
     <g id="line2d_10">
      <g>
       <use xlink:href="#m5a7c05adfe" x="567.12771" y="302.16" style="stroke: #000000; stroke-width: 0.8"/>
      </g>
     </g>
    </g>
    <g id="xtick_6">
     <g id="line2d_11">
      <path d="M 687.688935 302.16 
L 687.688935 76.92 
" clip-path="url(#pc49a695ded)" style="fill: none; stroke-dasharray: 2.96,1.28; stroke-dashoffset: 0; stroke: #b0b0b0; stroke-opacity: 0.6; stroke-width: 0.8"/>
     </g>
     <g id="line2d_12">
      <g>
       <use xlink:href="#m5a7c05adfe" x="687.688935" y="302.16" style="stroke: #000000; stroke-width: 0.8"/>
      </g>
     </g>
    </g>
   </g>
   <g id="matplotlib.axis_2">
    <g id="ytick_1">
     <g id="line2d_13">
      <path d="M 55.345313 277.295844 
L 705.170313 277.295844 
" clip-path="url(#pc49a695ded)" style="fill: none; stroke-dasharray: 2.96,1.28; stroke-dashoffset: 0; stroke: #b0b0b0; stroke-opacity: 0.6; stroke-width: 0.8"/>
     </g>
     <g id="line2d_14">
      <defs>
       <path id="m7bfd161189" d="M 0 0 
L -3.5 0 
" style="stroke: #000000; stroke-width: 0.8"/>
      </defs>
      <g>
       <use xlink:href="#m7bfd161189" x="55.345313" y="277.295844" style="stroke: #000000; stroke-width: 0.8"/>
      </g>
     </g>
     <g id="text_1">
      <!-- 20 -->
      <g transform="translate(35.620313 281.095063) scale(0.1 -0.1)">
       <defs>
        <path id="DejaVuSans-32" d="M 1228 531 
L 3431 531 
L 3431 0 
L 469 0 
L 469 531 
Q 828 903 1448 1529 
Q 2069 2156 2228 2338 
Q 2531 2678 2651 2914 
Q 2772 3150 2772 3378 
Q 2772 3750 2511 3984 
Q 2250 4219 1831 4219 
Q 1534 4219 1204 4116 
Q 875 4013 500 3803 
L 500 4441 
Q 881 4594 1212 4672 
Q 1544 4750 1819 4750 
Q 2544 4750 2975 4387 
Q 3406 4025 3406 3419 
Q 3406 3131 3298 2873 
Q 3191 2616 2906 2266 
Q 2828 2175 2409 1742 
Q 1991 1309 1228 531 
z
" transform="scale(0.015625)"/>
        <path id="DejaVuSans-30" d="M 2034 4250 
Q 1547 4250 1301 3770 
Q 1056 3291 1056 2328 
Q 1056 1369 1301 889 
Q 1547 409 2034 409 
Q 2525 409 2770 889 
Q 3016 1369 3016 2328 
Q 3016 3291 2770 3770 
Q 2525 4250 2034 4250 
z
M 2034 4750 
Q 2819 4750 3233 4129 
Q 3647 3509 3647 2328 
Q 3647 1150 3233 529 
Q 2819 -91 2034 -91 
Q 1250 -91 836 529 
Q 422 1150 422 2328 
Q 422 3509 836 4129 
Q 1250 4750 2034 4750 
z
" transform="scale(0.015625)"/>
       </defs>
       <use xlink:href="#DejaVuSans-32"/>
       <use xlink:href="#DejaVuSans-30" x="63.623047"/>
      </g>
     </g>
    </g>
    <g id="ytick_2">
     <g id="line2d_15">
      <path d="M 55.345313 248.043896 
L 705.170313 248.043896 
" clip-path="url(#pc49a695ded)" style="fill: none; stroke-dasharray: 2.96,1.28; stroke-dashoffset: 0; stroke: #b0b0b0; stroke-opacity: 0.6; stroke-width: 0.8"/>
     </g>
     <g id="line2d_16">
      <g>
       <use xlink:href="#m7bfd161189" x="55.345313" y="248.043896" style="stroke: #000000; stroke-width: 0.8"/>
      </g>
     </g>
     <g id="text_2">
      <!-- 40 -->
      <g transform="translate(35.620313 251.843115) scale(0.1 -0.1)">
       <defs>
        <path id="DejaVuSans-34" d="M 2419 4116 
L 825 1625 
L 2419 1625 
L 2419 4116 
z
M 2253 4666 
L 3047 4666 
L 3047 1625 
L 3713 1625 
L 3713 1100 
L 3047 1100 
L 3047 0 
L 2419 0 
L 2419 1100 
L 313 1100 
L 313 1709 
L 2253 4666 
z
" transform="scale(0.015625)"/>
       </defs>
       <use xlink:href="#DejaVuSans-34"/>
       <use xlink:href="#DejaVuSans-30" x="63.623047"/>
      </g>
     </g>
    </g>
    <g id="ytick_3">
     <g id="line2d_17">
      <path d="M 55.345313 218.791948 
L 705.170313 218.791948 
" clip-path="url(#pc49a695ded)" style="fill: none; stroke-dasharray: 2.96,1.28; stroke-dashoffset: 0; stroke: #b0b0b0; stroke-opacity: 0.6; stroke-width: 0.8"/>
     </g>
     <g id="line2d_18">
      <g>
       <use xlink:href="#m7bfd161189" x="55.345313" y="218.791948" style="stroke: #000000; stroke-width: 0.8"/>
      </g>
     </g>
     <g id="text_3">
      <!-- 60 -->
      <g transform="translate(35.620313 222.591167) scale(0.1 -0.1)">
       <defs>
        <path id="DejaVuSans-36" d="M 2113 2584 
Q 1688 2584 1439 2293 
Q 1191 2003 1191 1497 
Q 1191 994 1439 701 
Q 1688 409 2113 409 
Q 2538 409 2786 701 
Q 3034 994 3034 1497 
Q 3034 2003 2786 2293 
Q 2538 2584 2113 2584 
z
M 3366 4563 
L 3366 3988 
Q 3128 4100 2886 4159 
Q 2644 4219 2406 4219 
Q 1781 4219 1451 3797 
Q 1122 3375 1075 2522 
Q 1259 2794 1537 2939 
Q 1816 3084 2150 3084 
Q 2853 3084 3261 2657 
Q 3669 2231 3669 1497 
Q 3669 778 3244 343 
Q 2819 -91 2113 -91 
Q 1303 -91 875 529 
Q 447 1150 447 2328 
Q 447 3434 972 4092 
Q 1497 4750 2381 4750 
Q 2619 4750 2861 4703 
Q 3103 4656 3366 4563 
z
" transform="scale(0.015625)"/>
       </defs>
       <use xlink:href="#DejaVuSans-36"/>
       <use xlink:href="#DejaVuSans-30" x="63.623047"/>
      </g>
     </g>
    </g>
    <g id="ytick_4">
     <g id="line2d_19">
      <path d="M 55.345313 189.54 
L 705.170313 189.54 
" clip-path="url(#pc49a695ded)" style="fill: none; stroke-dasharray: 2.96,1.28; stroke-dashoffset: 0; stroke: #b0b0b0; stroke-opacity: 0.6; stroke-width: 0.8"/>
     </g>
     <g id="line2d_20">
      <g>
       <use xlink:href="#m7bfd161189" x="55.345313" y="189.54" style="stroke: #000000; stroke-width: 0.8"/>
      </g>
     </g>
     <g id="text_4">
      <!-- 80 -->
      <g transform="translate(35.620313 193.339219) scale(0.1 -0.1)">
       <defs>
        <path id="DejaVuSans-38" d="M 2034 2216 
Q 1584 2216 1326 1975 
Q 1069 1734 1069 1313 
Q 1069 891 1326 650 
Q 1584 409 2034 409 
Q 2484 409 2743 651 
Q 3003 894 3003 1313 
Q 3003 1734 2745 1975 
Q 2488 2216 2034 2216 
z
M 1403 2484 
Q 997 2584 770 2862 
Q 544 3141 544 3541 
Q 544 4100 942 4425 
Q 1341 4750 2034 4750 
Q 2731 4750 3128 4425 
Q 3525 4100 3525 3541 
Q 3525 3141 3298 2862 
Q 3072 2584 2669 2484 
Q 3125 2378 3379 2068 
Q 3634 1759 3634 1313 
Q 3634 634 3220 271 
Q 2806 -91 2034 -91 
Q 1263 -91 848 271 
Q 434 634 434 1313 
Q 434 1759 690 2068 
Q 947 2378 1403 2484 
z
M 1172 3481 
Q 1172 3119 1398 2916 
Q 1625 2713 2034 2713 
Q 2441 2713 2670 2916 
Q 2900 3119 2900 3481 
Q 2900 3844 2670 4047 
Q 2441 4250 2034 4250 
Q 1625 4250 1398 4047 
Q 1172 3844 1172 3481 
z
" transform="scale(0.015625)"/>
       </defs>
       <use xlink:href="#DejaVuSans-38"/>
       <use xlink:href="#DejaVuSans-30" x="63.623047"/>
      </g>
     </g>
    </g>
    <g id="ytick_5">
     <g id="line2d_21">
      <path d="M 55.345313 160.288052 
L 705.170313 160.288052 
" clip-path="url(#pc49a695ded)" style="fill: none; stroke-dasharray: 2.96,1.28; stroke-dashoffset: 0; stroke: #b0b0b0; stroke-opacity: 0.6; stroke-width: 0.8"/>
     </g>
     <g id="line2d_22">
      <g>
       <use xlink:href="#m7bfd161189" x="55.345313" y="160.288052" style="stroke: #000000; stroke-width: 0.8"/>
      </g>
     </g>
     <g id="text_5">
      <!-- 100 -->
      <g transform="translate(29.257813 164.087271) scale(0.1 -0.1)">
       <defs>
        <path id="DejaVuSans-31" d="M 794 531 
L 1825 531 
L 1825 4091 
L 703 3866 
L 703 4441 
L 1819 4666 
L 2450 4666 
L 2450 531 
L 3481 531 
L 3481 0 
L 794 0 
L 794 531 
z
" transform="scale(0.015625)"/>
       </defs>
       <use xlink:href="#DejaVuSans-31"/>
       <use xlink:href="#DejaVuSans-30" x="63.623047"/>
       <use xlink:href="#DejaVuSans-30" x="127.246094"/>
      </g>
     </g>
    </g>
    <g id="ytick_6">
     <g id="line2d_23">
      <path d="M 55.345313 131.036104 
L 705.170313 131.036104 
" clip-path="url(#pc49a695ded)" style="fill: none; stroke-dasharray: 2.96,1.28; stroke-dashoffset: 0; stroke: #b0b0b0; stroke-opacity: 0.6; stroke-width: 0.8"/>
     </g>
     <g id="line2d_24">
      <g>
       <use xlink:href="#m7bfd161189" x="55.345313" y="131.036104" style="stroke: #000000; stroke-width: 0.8"/>
      </g>
     </g>
     <g id="text_6">
      <!-- 120 -->
      <g transform="translate(29.257813 134.835323) scale(0.1 -0.1)">
       <use xlink:href="#DejaVuSans-31"/>
       <use xlink:href="#DejaVuSans-32" x="63.623047"/>
       <use xlink:href="#DejaVuSans-30" x="127.246094"/>
      </g>
     </g>
    </g>
    <g id="ytick_7">
     <g id="line2d_25">
      <path d="M 55.345313 101.784156 
L 705.170313 101.784156 
" clip-path="url(#pc49a695ded)" style="fill: none; stroke-dasharray: 2.96,1.28; stroke-dashoffset: 0; stroke: #b0b0b0; stroke-opacity: 0.6; stroke-width: 0.8"/>
     </g>
     <g id="line2d_26">
      <g>
       <use xlink:href="#m7bfd161189" x="55.345313" y="101.784156" style="stroke: #000000; stroke-width: 0.8"/>
      </g>
     </g>
     <g id="text_7">
      <!-- 140 -->
      <g transform="translate(29.257813 105.583375) scale(0.1 -0.1)">
       <use xlink:href="#DejaVuSans-31"/>
       <use xlink:href="#DejaVuSans-34" x="63.623047"/>
       <use xlink:href="#DejaVuSans-30" x="127.246094"/>
      </g>
     </g>
    </g>
    <g id="text_8">
     <!-- Number of Households -->
     <g transform="translate(23.178125 246.689219) rotate(-90) scale(0.1 -0.1)">
      <defs>
       <path id="DejaVuSans-4e" d="M 628 4666 
L 1478 4666 
L 3547 763 
L 3547 4666 
L 4159 4666 
L 4159 0 
L 3309 0 
L 1241 3903 
L 1241 0 
L 628 0 
L 628 4666 
z
" transform="scale(0.015625)"/>
       <path id="DejaVuSans-75" d="M 544 1381 
L 544 3500 
L 1119 3500 
L 1119 1403 
Q 1119 906 1312 657 
Q 1506 409 1894 409 
Q 2359 409 2629 706 
Q 2900 1003 2900 1516 
L 2900 3500 
L 3475 3500 
L 3475 0 
L 2900 0 
L 2900 538 
Q 2691 219 2414 64 
Q 2138 -91 1772 -91 
Q 1169 -91 856 284 
Q 544 659 544 1381 
z
M 1991 3584 
L 1991 3584 
z
" transform="scale(0.015625)"/>
       <path id="DejaVuSans-6d" d="M 3328 2828 
Q 3544 3216 3844 3400 
Q 4144 3584 4550 3584 
Q 5097 3584 5394 3201 
Q 5691 2819 5691 2113 
L 5691 0 
L 5113 0 
L 5113 2094 
Q 5113 2597 4934 2840 
Q 4756 3084 4391 3084 
Q 3944 3084 3684 2787 
Q 3425 2491 3425 1978 
L 3425 0 
L 2847 0 
L 2847 2094 
Q 2847 2600 2669 2842 
Q 2491 3084 2119 3084 
Q 1678 3084 1418 2786 
Q 1159 2488 1159 1978 
L 1159 0 
L 581 0 
L 581 3500 
L 1159 3500 
L 1159 2956 
Q 1356 3278 1631 3431 
Q 1906 3584 2284 3584 
Q 2666 3584 2933 3390 
Q 3200 3197 3328 2828 
z
" transform="scale(0.015625)"/>
       <path id="DejaVuSans-62" d="M 3116 1747 
Q 3116 2381 2855 2742 
Q 2594 3103 2138 3103 
Q 1681 3103 1420 2742 
Q 1159 2381 1159 1747 
Q 1159 1113 1420 752 
Q 1681 391 2138 391 
Q 2594 391 2855 752 
Q 3116 1113 3116 1747 
z
M 1159 2969 
Q 1341 3281 1617 3432 
Q 1894 3584 2278 3584 
Q 2916 3584 3314 3078 
Q 3713 2572 3713 1747 
Q 3713 922 3314 415 
Q 2916 -91 2278 -91 
Q 1894 -91 1617 61 
Q 1341 213 1159 525 
L 1159 0 
L 581 0 
L 581 4863 
L 1159 4863 
L 1159 2969 
z
" transform="scale(0.015625)"/>
       <path id="DejaVuSans-65" d="M 3597 1894 
L 3597 1613 
L 953 1613 
Q 991 1019 1311 708 
Q 1631 397 2203 397 
Q 2534 397 2845 478 
Q 3156 559 3463 722 
L 3463 178 
Q 3153 47 2828 -22 
Q 2503 -91 2169 -91 
Q 1331 -91 842 396 
Q 353 884 353 1716 
Q 353 2575 817 3079 
Q 1281 3584 2069 3584 
Q 2775 3584 3186 3129 
Q 3597 2675 3597 1894 
z
M 3022 2063 
Q 3016 2534 2758 2815 
Q 2500 3097 2075 3097 
Q 1594 3097 1305 2825 
Q 1016 2553 972 2059 
L 3022 2063 
z
" transform="scale(0.015625)"/>
       <path id="DejaVuSans-72" d="M 2631 2963 
Q 2534 3019 2420 3045 
Q 2306 3072 2169 3072 
Q 1681 3072 1420 2755 
Q 1159 2438 1159 1844 
L 1159 0 
L 581 0 
L 581 3500 
L 1159 3500 
L 1159 2956 
Q 1341 3275 1631 3429 
Q 1922 3584 2338 3584 
Q 2397 3584 2469 3576 
Q 2541 3569 2628 3553 
L 2631 2963 
z
" transform="scale(0.015625)"/>
       <path id="DejaVuSans-20" transform="scale(0.015625)"/>
       <path id="DejaVuSans-6f" d="M 1959 3097 
Q 1497 3097 1228 2736 
Q 959 2375 959 1747 
Q 959 1119 1226 758 
Q 1494 397 1959 397 
Q 2419 397 2687 759 
Q 2956 1122 2956 1747 
Q 2956 2369 2687 2733 
Q 2419 3097 1959 3097 
z
M 1959 3584 
Q 2709 3584 3137 3096 
Q 3566 2609 3566 1747 
Q 3566 888 3137 398 
Q 2709 -91 1959 -91 
Q 1206 -91 779 398 
Q 353 888 353 1747 
Q 353 2609 779 3096 
Q 1206 3584 1959 3584 
z
" transform="scale(0.015625)"/>
       <path id="DejaVuSans-66" d="M 2375 4863 
L 2375 4384 
L 1825 4384 
Q 1516 4384 1395 4259 
Q 1275 4134 1275 3809 
L 1275 3500 
L 2222 3500 
L 2222 3053 
L 1275 3053 
L 1275 0 
L 697 0 
L 697 3053 
L 147 3053 
L 147 3500 
L 697 3500 
L 697 3744 
Q 697 4328 969 4595 
Q 1241 4863 1831 4863 
L 2375 4863 
z
" transform="scale(0.015625)"/>
       <path id="DejaVuSans-48" d="M 628 4666 
L 1259 4666 
L 1259 2753 
L 3553 2753 
L 3553 4666 
L 4184 4666 
L 4184 0 
L 3553 0 
L 3553 2222 
L 1259 2222 
L 1259 0 
L 628 0 
L 628 4666 
z
" transform="scale(0.015625)"/>
       <path id="DejaVuSans-73" d="M 2834 3397 
L 2834 2853 
Q 2591 2978 2328 3040 
Q 2066 3103 1784 3103 
Q 1356 3103 1142 2972 
Q 928 2841 928 2578 
Q 928 2378 1081 2264 
Q 1234 2150 1697 2047 
L 1894 2003 
Q 2506 1872 2764 1633 
Q 3022 1394 3022 966 
Q 3022 478 2636 193 
Q 2250 -91 1575 -91 
Q 1294 -91 989 -36 
Q 684 19 347 128 
L 347 722 
Q 666 556 975 473 
Q 1284 391 1588 391 
Q 1994 391 2212 530 
Q 2431 669 2431 922 
Q 2431 1156 2273 1281 
Q 2116 1406 1581 1522 
L 1381 1569 
Q 847 1681 609 1914 
Q 372 2147 372 2553 
Q 372 3047 722 3315 
Q 1072 3584 1716 3584 
Q 2034 3584 2315 3537 
Q 2597 3491 2834 3397 
z
" transform="scale(0.015625)"/>
       <path id="DejaVuSans-68" d="M 3513 2113 
L 3513 0 
L 2938 0 
L 2938 2094 
Q 2938 2591 2744 2837 
Q 2550 3084 2163 3084 
Q 1697 3084 1428 2787 
Q 1159 2491 1159 1978 
L 1159 0 
L 581 0 
L 581 4863 
L 1159 4863 
L 1159 2956 
Q 1366 3272 1645 3428 
Q 1925 3584 2291 3584 
Q 2894 3584 3203 3211 
Q 3513 2838 3513 2113 
z
" transform="scale(0.015625)"/>
       <path id="DejaVuSans-6c" d="M 603 4863 
L 1178 4863 
L 1178 0 
L 603 0 
L 603 4863 
z
" transform="scale(0.015625)"/>
       <path id="DejaVuSans-64" d="M 2906 2969 
L 2906 4863 
L 3481 4863 
L 3481 0 
L 2906 0 
L 2906 525 
Q 2725 213 2448 61 
Q 2172 -91 1784 -91 
Q 1150 -91 751 415 
Q 353 922 353 1747 
Q 353 2572 751 3078 
Q 1150 3584 1784 3584 
Q 2172 3584 2448 3432 
Q 2725 3281 2906 2969 
z
M 947 1747 
Q 947 1113 1208 752 
Q 1469 391 1925 391 
Q 2381 391 2643 752 
Q 2906 1113 2906 1747 
Q 2906 2381 2643 2742 
Q 2381 3103 1925 3103 
Q 1469 3103 1208 2742 
Q 947 2381 947 1747 
z
" transform="scale(0.015625)"/>
      </defs>
      <use xlink:href="#DejaVuSans-4e"/>
      <use xlink:href="#DejaVuSans-75" x="74.804688"/>
      <use xlink:href="#DejaVuSans-6d" x="138.183594"/>
      <use xlink:href="#DejaVuSans-62" x="235.595703"/>
      <use xlink:href="#DejaVuSans-65" x="299.072266"/>
      <use xlink:href="#DejaVuSans-72" x="360.595703"/>
      <use xlink:href="#DejaVuSans-20" x="401.708984"/>
      <use xlink:href="#DejaVuSans-6f" x="433.496094"/>
      <use xlink:href="#DejaVuSans-66" x="494.677734"/>
      <use xlink:href="#DejaVuSans-20" x="529.882812"/>
      <use xlink:href="#DejaVuSans-48" x="561.669922"/>
      <use xlink:href="#DejaVuSans-6f" x="636.865234"/>
      <use xlink:href="#DejaVuSans-75" x="698.046875"/>
      <use xlink:href="#DejaVuSans-73" x="761.425781"/>
      <use xlink:href="#DejaVuSans-65" x="813.525391"/>
      <use xlink:href="#DejaVuSans-68" x="875.048828"/>
      <use xlink:href="#DejaVuSans-6f" x="938.427734"/>
      <use xlink:href="#DejaVuSans-6c" x="999.609375"/>
      <use xlink:href="#DejaVuSans-64" x="1027.392578"/>
      <use xlink:href="#DejaVuSans-73" x="1090.869141"/>
     </g>
    </g>
   </g>
   <g id="line2d_27">
    <path d="M 84.882812 218.791948 
L 96.938935 215.866753 
L 108.995057 212.941558 
L 121.05118 210.016364 
L 133.107302 207.091169 
L 145.163425 204.165974 
L 157.219547 201.240779 
L 169.27567 198.315584 
L 181.331792 195.39039 
L 193.387915 192.465195 
L 205.444037 189.54 
L 217.500159 186.614805 
L 229.556282 183.68961 
L 241.612404 180.764416 
L 253.668527 177.839221 
L 265.724649 87.158182 
L 277.780772 87.889481 
L 289.836894 88.620779 
L 301.893017 89.352078 
L 313.949139 90.083377 
L 326.005261 90.814675 
L 338.061384 91.545974 
L 350.117506 92.277273 
L 362.173629 93.008571 
L 374.229751 93.73987 
L 386.285874 94.471169 
L 398.341996 95.202468 
L 410.398119 95.933766 
L 422.454241 96.665065 
L 434.510364 97.396364 
L 446.566486 98.127662 
L 458.622608 98.858961 
L 470.678731 99.59026 
L 482.734853 100.321558 
L 494.790976 101.052857 
L 506.847098 101.784156 
L 518.903221 102.515455 
L 530.959343 103.246753 
L 543.015466 103.978052 
L 555.071588 104.709351 
L 567.12771 105.440649 
L 579.183833 106.171948 
L 591.239955 106.903247 
L 603.296078 107.634545 
L 615.3522 108.365844 
L 627.408323 109.097143 
L 639.464445 109.828442 
L 651.520568 110.55974 
L 663.57669 111.291039 
L 675.632812 112.022338 
" clip-path="url(#pc49a695ded)" style="fill: none; stroke: #1f77b4; stroke-width: 1.5; stroke-linecap: square"/>
   </g>
   <g id="line2d_28">
    <path d="M 84.882812 262.66987 
L 96.938935 261.938571 
L 108.995057 261.207273 
L 121.05118 260.475974 
L 133.107302 259.744675 
L 145.163425 259.013377 
L 157.219547 258.282078 
L 169.27567 257.550779 
L 181.331792 256.819481 
L 193.387915 256.088182 
L 205.444037 255.356883 
L 217.500159 254.625584 
L 229.556282 253.894286 
L 241.612404 253.162987 
L 253.668527 252.431688 
L 265.724649 251.70039 
L 277.780772 250.969091 
L 289.836894 250.237792 
L 301.893017 249.506494 
L 313.949139 248.775195 
L 326.005261 248.043896 
L 338.061384 247.312597 
L 350.117506 246.581299 
L 362.173629 245.85 
L 374.229751 245.118701 
L 386.285874 244.387403 
L 398.341996 243.656104 
L 410.398119 242.924805 
L 422.454241 242.193506 
L 434.510364 241.462208 
L 446.566486 240.730909 
L 458.622608 239.99961 
L 470.678731 239.268312 
L 482.734853 238.537013 
L 494.790976 237.805714 
L 506.847098 237.074416 
L 518.903221 236.343117 
L 530.959343 235.611818 
L 543.015466 234.880519 
L 555.071588 234.149221 
L 567.12771 233.417922 
L 579.183833 232.686623 
L 591.239955 231.955325 
L 603.296078 231.224026 
L 615.3522 230.492727 
L 627.408323 229.761429 
L 639.464445 229.03013 
L 651.520568 228.298831 
L 663.57669 227.567532 
L 675.632812 226.836234 
" clip-path="url(#pc49a695ded)" style="fill: none; stroke: #ff7f0e; stroke-width: 1.5; stroke-linecap: square"/>
   </g>
   <g id="line2d_29">
    <path d="M 84.882812 291.921818 
L 96.938935 291.921818 
L 108.995057 291.921818 
L 121.05118 291.921818 
L 133.107302 291.921818 
L 145.163425 291.921818 
L 157.219547 291.921818 
L 169.27567 291.921818 
L 181.331792 291.921818 
L 193.387915 291.921818 
L 205.444037 291.921818 
L 217.500159 291.921818 
L 229.556282 291.921818 
L 241.612404 291.921818 
L 253.668527 291.921818 
L 265.724649 291.921818 
L 277.780772 291.921818 
L 289.836894 291.921818 
L 301.893017 291.921818 
L 313.949139 291.921818 
L 326.005261 291.921818 
L 338.061384 291.921818 
L 350.117506 291.921818 
L 362.173629 291.921818 
L 374.229751 291.921818 
L 386.285874 291.921818 
L 398.341996 291.921818 
L 410.398119 291.921818 
L 422.454241 291.921818 
L 434.510364 291.921818 
L 446.566486 291.921818 
L 458.622608 291.921818 
L 470.678731 291.921818 
L 482.734853 291.921818 
L 494.790976 291.921818 
L 506.847098 291.921818 
L 518.903221 291.921818 
L 530.959343 291.921818 
L 543.015466 291.921818 
L 555.071588 291.921818 
L 567.12771 291.921818 
L 579.183833 291.921818 
L 591.239955 291.921818 
L 603.296078 291.921818 
L 615.3522 291.921818 
L 627.408323 291.921818 
L 639.464445 291.921818 
L 651.520568 291.921818 
L 663.57669 291.921818 
L 675.632812 291.921818 
" clip-path="url(#pc49a695ded)" style="fill: none; stroke: #2ca02c; stroke-width: 1.5; stroke-linecap: square"/>
   </g>
   <g id="patch_3">
    <path d="M 55.345313 302.16 
L 55.345313 76.92 
" style="fill: none; stroke: #000000; stroke-width: 0.8; stroke-linejoin: miter; stroke-linecap: square"/>
   </g>
   <g id="patch_4">
    <path d="M 705.170313 302.16 
L 705.170313 76.92 
" style="fill: none; stroke: #000000; stroke-width: 0.8; stroke-linejoin: miter; stroke-linecap: square"/>
   </g>
   <g id="patch_5">
    <path d="M 55.345312 302.16 
L 705.170313 302.16 
" style="fill: none; stroke: #000000; stroke-width: 0.8; stroke-linejoin: miter; stroke-linecap: square"/>
   </g>
   <g id="patch_6">
    <path d="M 55.345312 76.92 
L 705.170313 76.92 
" style="fill: none; stroke: #000000; stroke-width: 0.8; stroke-linejoin: miter; stroke-linecap: square"/>
   </g>
   <g id="text_9">
    <!-- a) Population by Income Class -->
    <g transform="translate(289.86875 70.92) scale(0.12 -0.12)">
     <defs>
      <path id="DejaVuSans-61" d="M 2194 1759 
Q 1497 1759 1228 1600 
Q 959 1441 959 1056 
Q 959 750 1161 570 
Q 1363 391 1709 391 
Q 2188 391 2477 730 
Q 2766 1069 2766 1631 
L 2766 1759 
L 2194 1759 
z
M 3341 1997 
L 3341 0 
L 2766 0 
L 2766 531 
Q 2569 213 2275 61 
Q 1981 -91 1556 -91 
Q 1019 -91 701 211 
Q 384 513 384 1019 
Q 384 1609 779 1909 
Q 1175 2209 1959 2209 
L 2766 2209 
L 2766 2266 
Q 2766 2663 2505 2880 
Q 2244 3097 1772 3097 
Q 1472 3097 1187 3025 
Q 903 2953 641 2809 
L 641 3341 
Q 956 3463 1253 3523 
Q 1550 3584 1831 3584 
Q 2591 3584 2966 3190 
Q 3341 2797 3341 1997 
z
" transform="scale(0.015625)"/>
      <path id="DejaVuSans-29" d="M 513 4856 
L 1013 4856 
Q 1481 4119 1714 3412 
Q 1947 2706 1947 2009 
Q 1947 1309 1714 600 
Q 1481 -109 1013 -844 
L 513 -844 
Q 928 -128 1133 580 
Q 1338 1288 1338 2009 
Q 1338 2731 1133 3434 
Q 928 4138 513 4856 
z
" transform="scale(0.015625)"/>
      <path id="DejaVuSans-50" d="M 1259 4147 
L 1259 2394 
L 2053 2394 
Q 2494 2394 2734 2622 
Q 2975 2850 2975 3272 
Q 2975 3691 2734 3919 
Q 2494 4147 2053 4147 
L 1259 4147 
z
M 628 4666 
L 2053 4666 
Q 2838 4666 3239 4311 
Q 3641 3956 3641 3272 
Q 3641 2581 3239 2228 
Q 2838 1875 2053 1875 
L 1259 1875 
L 1259 0 
L 628 0 
L 628 4666 
z
" transform="scale(0.015625)"/>
      <path id="DejaVuSans-70" d="M 1159 525 
L 1159 -1331 
L 581 -1331 
L 581 3500 
L 1159 3500 
L 1159 2969 
Q 1341 3281 1617 3432 
Q 1894 3584 2278 3584 
Q 2916 3584 3314 3078 
Q 3713 2572 3713 1747 
Q 3713 922 3314 415 
Q 2916 -91 2278 -91 
Q 1894 -91 1617 61 
Q 1341 213 1159 525 
z
M 3116 1747 
Q 3116 2381 2855 2742 
Q 2594 3103 2138 3103 
Q 1681 3103 1420 2742 
Q 1159 2381 1159 1747 
Q 1159 1113 1420 752 
Q 1681 391 2138 391 
Q 2594 391 2855 752 
Q 3116 1113 3116 1747 
z
" transform="scale(0.015625)"/>
      <path id="DejaVuSans-74" d="M 1172 4494 
L 1172 3500 
L 2356 3500 
L 2356 3053 
L 1172 3053 
L 1172 1153 
Q 1172 725 1289 603 
Q 1406 481 1766 481 
L 2356 481 
L 2356 0 
L 1766 0 
Q 1100 0 847 248 
Q 594 497 594 1153 
L 594 3053 
L 172 3053 
L 172 3500 
L 594 3500 
L 594 4494 
L 1172 4494 
z
" transform="scale(0.015625)"/>
      <path id="DejaVuSans-69" d="M 603 3500 
L 1178 3500 
L 1178 0 
L 603 0 
L 603 3500 
z
M 603 4863 
L 1178 4863 
L 1178 4134 
L 603 4134 
L 603 4863 
z
" transform="scale(0.015625)"/>
      <path id="DejaVuSans-6e" d="M 3513 2113 
L 3513 0 
L 2938 0 
L 2938 2094 
Q 2938 2591 2744 2837 
Q 2550 3084 2163 3084 
Q 1697 3084 1428 2787 
Q 1159 2491 1159 1978 
L 1159 0 
L 581 0 
L 581 3500 
L 1159 3500 
L 1159 2956 
Q 1366 3272 1645 3428 
Q 1925 3584 2291 3584 
Q 2894 3584 3203 3211 
Q 3513 2838 3513 2113 
z
" transform="scale(0.015625)"/>
      <path id="DejaVuSans-79" d="M 2059 -325 
Q 1816 -950 1584 -1140 
Q 1353 -1331 966 -1331 
L 506 -1331 
L 506 -850 
L 844 -850 
Q 1081 -850 1212 -737 
Q 1344 -625 1503 -206 
L 1606 56 
L 191 3500 
L 800 3500 
L 1894 763 
L 2988 3500 
L 3597 3500 
L 2059 -325 
z
" transform="scale(0.015625)"/>
      <path id="DejaVuSans-49" d="M 628 4666 
L 1259 4666 
L 1259 0 
L 628 0 
L 628 4666 
z
" transform="scale(0.015625)"/>
      <path id="DejaVuSans-63" d="M 3122 3366 
L 3122 2828 
Q 2878 2963 2633 3030 
Q 2388 3097 2138 3097 
Q 1578 3097 1268 2742 
Q 959 2388 959 1747 
Q 959 1106 1268 751 
Q 1578 397 2138 397 
Q 2388 397 2633 464 
Q 2878 531 3122 666 
L 3122 134 
Q 2881 22 2623 -34 
Q 2366 -91 2075 -91 
Q 1284 -91 818 406 
Q 353 903 353 1747 
Q 353 2603 823 3093 
Q 1294 3584 2113 3584 
Q 2378 3584 2631 3529 
Q 2884 3475 3122 3366 
z
" transform="scale(0.015625)"/>
      <path id="DejaVuSans-43" d="M 4122 4306 
L 4122 3641 
Q 3803 3938 3442 4084 
Q 3081 4231 2675 4231 
Q 1875 4231 1450 3742 
Q 1025 3253 1025 2328 
Q 1025 1406 1450 917 
Q 1875 428 2675 428 
Q 3081 428 3442 575 
Q 3803 722 4122 1019 
L 4122 359 
Q 3791 134 3420 21 
Q 3050 -91 2638 -91 
Q 1578 -91 968 557 
Q 359 1206 359 2328 
Q 359 3453 968 4101 
Q 1578 4750 2638 4750 
Q 3056 4750 3426 4639 
Q 3797 4528 4122 4306 
z
" transform="scale(0.015625)"/>
     </defs>
     <use xlink:href="#DejaVuSans-61"/>
     <use xlink:href="#DejaVuSans-29" x="61.279297"/>
     <use xlink:href="#DejaVuSans-20" x="100.292969"/>
     <use xlink:href="#DejaVuSans-50" x="132.080078"/>
     <use xlink:href="#DejaVuSans-6f" x="188.757812"/>
     <use xlink:href="#DejaVuSans-70" x="249.939453"/>
     <use xlink:href="#DejaVuSans-75" x="313.416016"/>
     <use xlink:href="#DejaVuSans-6c" x="376.794922"/>
     <use xlink:href="#DejaVuSans-61" x="404.578125"/>
     <use xlink:href="#DejaVuSans-74" x="465.857422"/>
     <use xlink:href="#DejaVuSans-69" x="505.066406"/>
     <use xlink:href="#DejaVuSans-6f" x="532.849609"/>
     <use xlink:href="#DejaVuSans-6e" x="594.03125"/>
     <use xlink:href="#DejaVuSans-20" x="657.410156"/>
     <use xlink:href="#DejaVuSans-62" x="689.197266"/>
     <use xlink:href="#DejaVuSans-79" x="752.673828"/>
     <use xlink:href="#DejaVuSans-20" x="811.853516"/>
     <use xlink:href="#DejaVuSans-49" x="843.640625"/>
     <use xlink:href="#DejaVuSans-6e" x="873.132812"/>
     <use xlink:href="#DejaVuSans-63" x="936.511719"/>
     <use xlink:href="#DejaVuSans-6f" x="991.492188"/>
     <use xlink:href="#DejaVuSans-6d" x="1052.673828"/>
     <use xlink:href="#DejaVuSans-65" x="1150.085938"/>
     <use xlink:href="#DejaVuSans-20" x="1211.609375"/>
     <use xlink:href="#DejaVuSans-43" x="1243.396484"/>
     <use xlink:href="#DejaVuSans-6c" x="1313.220703"/>
     <use xlink:href="#DejaVuSans-61" x="1341.003906"/>
     <use xlink:href="#DejaVuSans-73" x="1402.283203"/>
     <use xlink:href="#DejaVuSans-73" x="1454.382812"/>
    </g>
   </g>
   <g id="legend_1">
    <g id="patch_7">
     <path d="M 62.345313 128.954375 
L 174.307813 128.954375 
Q 176.307813 128.954375 176.307813 126.954375 
L 176.307813 83.92 
Q 176.307813 81.92 174.307813 81.92 
L 62.345313 81.92 
Q 60.345313 81.92 60.345313 83.92 
L 60.345313 126.954375 
Q 60.345313 128.954375 62.345313 128.954375 
z
" style="fill: #ffffff; opacity: 0.8; stroke: #cccccc; stroke-linejoin: miter"/>
    </g>
    <g id="line2d_30">
     <path d="M 64.345313 90.018438 
L 74.345313 90.018438 
L 84.345313 90.018438 
" style="fill: none; stroke: #1f77b4; stroke-width: 1.5; stroke-linecap: square"/>
    </g>
    <g id="text_10">
     <!-- Low Income -->
     <g transform="translate(92.345313 93.518438) scale(0.1 -0.1)">
      <defs>
       <path id="DejaVuSans-4c" d="M 628 4666 
L 1259 4666 
L 1259 531 
L 3531 531 
L 3531 0 
L 628 0 
L 628 4666 
z
" transform="scale(0.015625)"/>
       <path id="DejaVuSans-77" d="M 269 3500 
L 844 3500 
L 1563 769 
L 2278 3500 
L 2956 3500 
L 3675 769 
L 4391 3500 
L 4966 3500 
L 4050 0 
L 3372 0 
L 2619 2869 
L 1863 0 
L 1184 0 
L 269 3500 
z
" transform="scale(0.015625)"/>
      </defs>
      <use xlink:href="#DejaVuSans-4c"/>
      <use xlink:href="#DejaVuSans-6f" x="53.962891"/>
      <use xlink:href="#DejaVuSans-77" x="115.144531"/>
      <use xlink:href="#DejaVuSans-20" x="196.931641"/>
      <use xlink:href="#DejaVuSans-49" x="228.71875"/>
      <use xlink:href="#DejaVuSans-6e" x="258.210938"/>
      <use xlink:href="#DejaVuSans-63" x="321.589844"/>
      <use xlink:href="#DejaVuSans-6f" x="376.570312"/>
      <use xlink:href="#DejaVuSans-6d" x="437.751953"/>
      <use xlink:href="#DejaVuSans-65" x="535.164062"/>
     </g>
    </g>
    <g id="line2d_31">
     <path d="M 64.345313 104.696563 
L 74.345313 104.696563 
L 84.345313 104.696563 
" style="fill: none; stroke: #ff7f0e; stroke-width: 1.5; stroke-linecap: square"/>
    </g>
    <g id="text_11">
     <!-- Medium Income -->
     <g transform="translate(92.345313 108.196563) scale(0.1 -0.1)">
      <defs>
       <path id="DejaVuSans-4d" d="M 628 4666 
L 1569 4666 
L 2759 1491 
L 3956 4666 
L 4897 4666 
L 4897 0 
L 4281 0 
L 4281 4097 
L 3078 897 
L 2444 897 
L 1241 4097 
L 1241 0 
L 628 0 
L 628 4666 
z
" transform="scale(0.015625)"/>
      </defs>
      <use xlink:href="#DejaVuSans-4d"/>
      <use xlink:href="#DejaVuSans-65" x="86.279297"/>
      <use xlink:href="#DejaVuSans-64" x="147.802734"/>
      <use xlink:href="#DejaVuSans-69" x="211.279297"/>
      <use xlink:href="#DejaVuSans-75" x="239.0625"/>
      <use xlink:href="#DejaVuSans-6d" x="302.441406"/>
      <use xlink:href="#DejaVuSans-20" x="399.853516"/>
      <use xlink:href="#DejaVuSans-49" x="431.640625"/>
      <use xlink:href="#DejaVuSans-6e" x="461.132812"/>
      <use xlink:href="#DejaVuSans-63" x="524.511719"/>
      <use xlink:href="#DejaVuSans-6f" x="579.492188"/>
      <use xlink:href="#DejaVuSans-6d" x="640.673828"/>
      <use xlink:href="#DejaVuSans-65" x="738.085938"/>
     </g>
    </g>
    <g id="line2d_32">
     <path d="M 64.345313 119.374688 
L 74.345313 119.374688 
L 84.345313 119.374688 
" style="fill: none; stroke: #2ca02c; stroke-width: 1.5; stroke-linecap: square"/>
    </g>
    <g id="text_12">
     <!-- High Income -->
     <g transform="translate(92.345313 122.874688) scale(0.1 -0.1)">
      <defs>
       <path id="DejaVuSans-67" d="M 2906 1791 
Q 2906 2416 2648 2759 
Q 2391 3103 1925 3103 
Q 1463 3103 1205 2759 
Q 947 2416 947 1791 
Q 947 1169 1205 825 
Q 1463 481 1925 481 
Q 2391 481 2648 825 
Q 2906 1169 2906 1791 
z
M 3481 434 
Q 3481 -459 3084 -895 
Q 2688 -1331 1869 -1331 
Q 1566 -1331 1297 -1286 
Q 1028 -1241 775 -1147 
L 775 -588 
Q 1028 -725 1275 -790 
Q 1522 -856 1778 -856 
Q 2344 -856 2625 -561 
Q 2906 -266 2906 331 
L 2906 616 
Q 2728 306 2450 153 
Q 2172 0 1784 0 
Q 1141 0 747 490 
Q 353 981 353 1791 
Q 353 2603 747 3093 
Q 1141 3584 1784 3584 
Q 2172 3584 2450 3431 
Q 2728 3278 2906 2969 
L 2906 3500 
L 3481 3500 
L 3481 434 
z
" transform="scale(0.015625)"/>
      </defs>
      <use xlink:href="#DejaVuSans-48"/>
      <use xlink:href="#DejaVuSans-69" x="75.195312"/>
      <use xlink:href="#DejaVuSans-67" x="102.978516"/>
      <use xlink:href="#DejaVuSans-68" x="166.455078"/>
      <use xlink:href="#DejaVuSans-20" x="229.833984"/>
      <use xlink:href="#DejaVuSans-49" x="261.621094"/>
      <use xlink:href="#DejaVuSans-6e" x="291.113281"/>
      <use xlink:href="#DejaVuSans-63" x="354.492188"/>
      <use xlink:href="#DejaVuSans-6f" x="409.472656"/>
      <use xlink:href="#DejaVuSans-6d" x="470.654297"/>
      <use xlink:href="#DejaVuSans-65" x="568.066406"/>
     </g>
    </g>
   </g>
  </g>
  <g id="axes_2">
   <g id="patch_8">
    <path d="M 55.345313 557.06 
L 705.170313 557.06 
L 705.170313 331.82 
L 55.345313 331.82 
z
" style="fill: #ffffff"/>
   </g>
   <g id="matplotlib.axis_3">
    <g id="xtick_7">
     <g id="line2d_33">
      <path d="M 84.882812 557.06 
L 84.882812 331.82 
" clip-path="url(#pce72139528)" style="fill: none; stroke-dasharray: 2.96,1.28; stroke-dashoffset: 0; stroke: #b0b0b0; stroke-opacity: 0.6; stroke-width: 0.8"/>
     </g>
     <g id="line2d_34">
      <g>
       <use xlink:href="#m5a7c05adfe" x="84.882812" y="557.06" style="stroke: #000000; stroke-width: 0.8"/>
      </g>
     </g>
    </g>
    <g id="xtick_8">
     <g id="line2d_35">
      <path d="M 205.444037 557.06 
L 205.444037 331.82 
" clip-path="url(#pce72139528)" style="fill: none; stroke-dasharray: 2.96,1.28; stroke-dashoffset: 0; stroke: #b0b0b0; stroke-opacity: 0.6; stroke-width: 0.8"/>
     </g>
     <g id="line2d_36">
      <g>
       <use xlink:href="#m5a7c05adfe" x="205.444037" y="557.06" style="stroke: #000000; stroke-width: 0.8"/>
      </g>
     </g>
    </g>
    <g id="xtick_9">
     <g id="line2d_37">
      <path d="M 326.005261 557.06 
L 326.005261 331.82 
" clip-path="url(#pce72139528)" style="fill: none; stroke-dasharray: 2.96,1.28; stroke-dashoffset: 0; stroke: #b0b0b0; stroke-opacity: 0.6; stroke-width: 0.8"/>
     </g>
     <g id="line2d_38">
      <g>
       <use xlink:href="#m5a7c05adfe" x="326.005261" y="557.06" style="stroke: #000000; stroke-width: 0.8"/>
      </g>
     </g>
    </g>
    <g id="xtick_10">
     <g id="line2d_39">
      <path d="M 446.566486 557.06 
L 446.566486 331.82 
" clip-path="url(#pce72139528)" style="fill: none; stroke-dasharray: 2.96,1.28; stroke-dashoffset: 0; stroke: #b0b0b0; stroke-opacity: 0.6; stroke-width: 0.8"/>
     </g>
     <g id="line2d_40">
      <g>
       <use xlink:href="#m5a7c05adfe" x="446.566486" y="557.06" style="stroke: #000000; stroke-width: 0.8"/>
      </g>
     </g>
    </g>
    <g id="xtick_11">
     <g id="line2d_41">
      <path d="M 567.12771 557.06 
L 567.12771 331.82 
" clip-path="url(#pce72139528)" style="fill: none; stroke-dasharray: 2.96,1.28; stroke-dashoffset: 0; stroke: #b0b0b0; stroke-opacity: 0.6; stroke-width: 0.8"/>
     </g>
     <g id="line2d_42">
      <g>
       <use xlink:href="#m5a7c05adfe" x="567.12771" y="557.06" style="stroke: #000000; stroke-width: 0.8"/>
      </g>
     </g>
    </g>
    <g id="xtick_12">
     <g id="line2d_43">
      <path d="M 687.688935 557.06 
L 687.688935 331.82 
" clip-path="url(#pce72139528)" style="fill: none; stroke-dasharray: 2.96,1.28; stroke-dashoffset: 0; stroke: #b0b0b0; stroke-opacity: 0.6; stroke-width: 0.8"/>
     </g>
     <g id="line2d_44">
      <g>
       <use xlink:href="#m5a7c05adfe" x="687.688935" y="557.06" style="stroke: #000000; stroke-width: 0.8"/>
      </g>
     </g>
    </g>
   </g>
   <g id="matplotlib.axis_4">
    <g id="ytick_8">
     <g id="line2d_45">
      <path d="M 55.345313 551.000668 
L 705.170313 551.000668 
" clip-path="url(#pce72139528)" style="fill: none; stroke-dasharray: 2.96,1.28; stroke-dashoffset: 0; stroke: #b0b0b0; stroke-opacity: 0.6; stroke-width: 0.8"/>
     </g>
     <g id="line2d_46">
      <g>
       <use xlink:href="#m7bfd161189" x="55.345313" y="551.000668" style="stroke: #000000; stroke-width: 0.8"/>
      </g>
     </g>
     <g id="text_13">
      <!-- −150 -->
      <g transform="translate(20.878125 554.799887) scale(0.1 -0.1)">
       <defs>
        <path id="DejaVuSans-2212" d="M 678 2272 
L 4684 2272 
L 4684 1741 
L 678 1741 
L 678 2272 
z
" transform="scale(0.015625)"/>
        <path id="DejaVuSans-35" d="M 691 4666 
L 3169 4666 
L 3169 4134 
L 1269 4134 
L 1269 2991 
Q 1406 3038 1543 3061 
Q 1681 3084 1819 3084 
Q 2600 3084 3056 2656 
Q 3513 2228 3513 1497 
Q 3513 744 3044 326 
Q 2575 -91 1722 -91 
Q 1428 -91 1123 -41 
Q 819 9 494 109 
L 494 744 
Q 775 591 1075 516 
Q 1375 441 1709 441 
Q 2250 441 2565 725 
Q 2881 1009 2881 1497 
Q 2881 1984 2565 2268 
Q 2250 2553 1709 2553 
Q 1456 2553 1204 2497 
Q 953 2441 691 2322 
L 691 4666 
z
" transform="scale(0.015625)"/>
       </defs>
       <use xlink:href="#DejaVuSans-2212"/>
       <use xlink:href="#DejaVuSans-31" x="83.789062"/>
       <use xlink:href="#DejaVuSans-35" x="147.412109"/>
       <use xlink:href="#DejaVuSans-30" x="211.035156"/>
      </g>
     </g>
    </g>
    <g id="ytick_9">
     <g id="line2d_47">
      <path d="M 55.345313 524.882857 
L 705.170313 524.882857 
" clip-path="url(#pce72139528)" style="fill: none; stroke-dasharray: 2.96,1.28; stroke-dashoffset: 0; stroke: #b0b0b0; stroke-opacity: 0.6; stroke-width: 0.8"/>
     </g>
     <g id="line2d_48">
      <g>
       <use xlink:href="#m7bfd161189" x="55.345313" y="524.882857" style="stroke: #000000; stroke-width: 0.8"/>
      </g>
     </g>
     <g id="text_14">
      <!-- −125 -->
      <g transform="translate(20.878125 528.682076) scale(0.1 -0.1)">
       <use xlink:href="#DejaVuSans-2212"/>
       <use xlink:href="#DejaVuSans-31" x="83.789062"/>
       <use xlink:href="#DejaVuSans-32" x="147.412109"/>
       <use xlink:href="#DejaVuSans-35" x="211.035156"/>
      </g>
     </g>
    </g>
    <g id="ytick_10">
     <g id="line2d_49">
      <path d="M 55.345313 498.765046 
L 705.170313 498.765046 
" clip-path="url(#pce72139528)" style="fill: none; stroke-dasharray: 2.96,1.28; stroke-dashoffset: 0; stroke: #b0b0b0; stroke-opacity: 0.6; stroke-width: 0.8"/>
     </g>
     <g id="line2d_50">
      <g>
       <use xlink:href="#m7bfd161189" x="55.345313" y="498.765046" style="stroke: #000000; stroke-width: 0.8"/>
      </g>
     </g>
     <g id="text_15">
      <!-- −100 -->
      <g transform="translate(20.878125 502.564265) scale(0.1 -0.1)">
       <use xlink:href="#DejaVuSans-2212"/>
       <use xlink:href="#DejaVuSans-31" x="83.789062"/>
       <use xlink:href="#DejaVuSans-30" x="147.412109"/>
       <use xlink:href="#DejaVuSans-30" x="211.035156"/>
      </g>
     </g>
    </g>
    <g id="ytick_11">
     <g id="line2d_51">
      <path d="M 55.345313 472.647236 
L 705.170313 472.647236 
" clip-path="url(#pce72139528)" style="fill: none; stroke-dasharray: 2.96,1.28; stroke-dashoffset: 0; stroke: #b0b0b0; stroke-opacity: 0.6; stroke-width: 0.8"/>
     </g>
     <g id="line2d_52">
      <g>
       <use xlink:href="#m7bfd161189" x="55.345313" y="472.647236" style="stroke: #000000; stroke-width: 0.8"/>
      </g>
     </g>
     <g id="text_16">
      <!-- −75 -->
      <g transform="translate(27.240625 476.446454) scale(0.1 -0.1)">
       <defs>
        <path id="DejaVuSans-37" d="M 525 4666 
L 3525 4666 
L 3525 4397 
L 1831 0 
L 1172 0 
L 2766 4134 
L 525 4134 
L 525 4666 
z
" transform="scale(0.015625)"/>
       </defs>
       <use xlink:href="#DejaVuSans-2212"/>
       <use xlink:href="#DejaVuSans-37" x="83.789062"/>
       <use xlink:href="#DejaVuSans-35" x="147.412109"/>
      </g>
     </g>
    </g>
    <g id="ytick_12">
     <g id="line2d_53">
      <path d="M 55.345313 446.529425 
L 705.170313 446.529425 
" clip-path="url(#pce72139528)" style="fill: none; stroke-dasharray: 2.96,1.28; stroke-dashoffset: 0; stroke: #b0b0b0; stroke-opacity: 0.6; stroke-width: 0.8"/>
     </g>
     <g id="line2d_54">
      <g>
       <use xlink:href="#m7bfd161189" x="55.345313" y="446.529425" style="stroke: #000000; stroke-width: 0.8"/>
      </g>
     </g>
     <g id="text_17">
      <!-- −50 -->
      <g transform="translate(27.240625 450.328644) scale(0.1 -0.1)">
       <use xlink:href="#DejaVuSans-2212"/>
       <use xlink:href="#DejaVuSans-35" x="83.789062"/>
       <use xlink:href="#DejaVuSans-30" x="147.412109"/>
      </g>
     </g>
    </g>
    <g id="ytick_13">
     <g id="line2d_55">
      <path d="M 55.345313 420.411614 
L 705.170313 420.411614 
" clip-path="url(#pce72139528)" style="fill: none; stroke-dasharray: 2.96,1.28; stroke-dashoffset: 0; stroke: #b0b0b0; stroke-opacity: 0.6; stroke-width: 0.8"/>
     </g>
     <g id="line2d_56">
      <g>
       <use xlink:href="#m7bfd161189" x="55.345313" y="420.411614" style="stroke: #000000; stroke-width: 0.8"/>
      </g>
     </g>
     <g id="text_18">
      <!-- −25 -->
      <g transform="translate(27.240625 424.210833) scale(0.1 -0.1)">
       <use xlink:href="#DejaVuSans-2212"/>
       <use xlink:href="#DejaVuSans-32" x="83.789062"/>
       <use xlink:href="#DejaVuSans-35" x="147.412109"/>
      </g>
     </g>
    </g>
    <g id="ytick_14">
     <g id="line2d_57">
      <path d="M 55.345313 394.293803 
L 705.170313 394.293803 
" clip-path="url(#pce72139528)" style="fill: none; stroke-dasharray: 2.96,1.28; stroke-dashoffset: 0; stroke: #b0b0b0; stroke-opacity: 0.6; stroke-width: 0.8"/>
     </g>
     <g id="line2d_58">
      <g>
       <use xlink:href="#m7bfd161189" x="55.345313" y="394.293803" style="stroke: #000000; stroke-width: 0.8"/>
      </g>
     </g>
     <g id="text_19">
      <!-- 0 -->
      <g transform="translate(41.982813 398.093022) scale(0.1 -0.1)">
       <use xlink:href="#DejaVuSans-30"/>
      </g>
     </g>
    </g>
    <g id="ytick_15">
     <g id="line2d_59">
      <path d="M 55.345313 368.175993 
L 705.170313 368.175993 
" clip-path="url(#pce72139528)" style="fill: none; stroke-dasharray: 2.96,1.28; stroke-dashoffset: 0; stroke: #b0b0b0; stroke-opacity: 0.6; stroke-width: 0.8"/>
     </g>
     <g id="line2d_60">
      <g>
       <use xlink:href="#m7bfd161189" x="55.345313" y="368.175993" style="stroke: #000000; stroke-width: 0.8"/>
      </g>
     </g>
     <g id="text_20">
      <!-- 25 -->
      <g transform="translate(35.620313 371.975211) scale(0.1 -0.1)">
       <use xlink:href="#DejaVuSans-32"/>
       <use xlink:href="#DejaVuSans-35" x="63.623047"/>
      </g>
     </g>
    </g>
    <g id="ytick_16">
     <g id="line2d_61">
      <path d="M 55.345313 342.058182 
L 705.170313 342.058182 
" clip-path="url(#pce72139528)" style="fill: none; stroke-dasharray: 2.96,1.28; stroke-dashoffset: 0; stroke: #b0b0b0; stroke-opacity: 0.6; stroke-width: 0.8"/>
     </g>
     <g id="line2d_62">
      <g>
       <use xlink:href="#m7bfd161189" x="55.345313" y="342.058182" style="stroke: #000000; stroke-width: 0.8"/>
      </g>
     </g>
     <g id="text_21">
      <!-- 50 -->
      <g transform="translate(35.620313 345.857401) scale(0.1 -0.1)">
       <use xlink:href="#DejaVuSans-35"/>
       <use xlink:href="#DejaVuSans-30" x="63.623047"/>
      </g>
     </g>
    </g>
    <g id="text_22">
     <!-- Budget Units -->
     <g transform="translate(14.798438 476.795469) rotate(-90) scale(0.1 -0.1)">
      <defs>
       <path id="DejaVuSans-42" d="M 1259 2228 
L 1259 519 
L 2272 519 
Q 2781 519 3026 730 
Q 3272 941 3272 1375 
Q 3272 1813 3026 2020 
Q 2781 2228 2272 2228 
L 1259 2228 
z
M 1259 4147 
L 1259 2741 
L 2194 2741 
Q 2656 2741 2882 2914 
Q 3109 3088 3109 3444 
Q 3109 3797 2882 3972 
Q 2656 4147 2194 4147 
L 1259 4147 
z
M 628 4666 
L 2241 4666 
Q 2963 4666 3353 4366 
Q 3744 4066 3744 3513 
Q 3744 3084 3544 2831 
Q 3344 2578 2956 2516 
Q 3422 2416 3680 2098 
Q 3938 1781 3938 1306 
Q 3938 681 3513 340 
Q 3088 0 2303 0 
L 628 0 
L 628 4666 
z
" transform="scale(0.015625)"/>
       <path id="DejaVuSans-55" d="M 556 4666 
L 1191 4666 
L 1191 1831 
Q 1191 1081 1462 751 
Q 1734 422 2344 422 
Q 2950 422 3222 751 
Q 3494 1081 3494 1831 
L 3494 4666 
L 4128 4666 
L 4128 1753 
Q 4128 841 3676 375 
Q 3225 -91 2344 -91 
Q 1459 -91 1007 375 
Q 556 841 556 1753 
L 556 4666 
z
" transform="scale(0.015625)"/>
      </defs>
      <use xlink:href="#DejaVuSans-42"/>
      <use xlink:href="#DejaVuSans-75" x="68.603516"/>
      <use xlink:href="#DejaVuSans-64" x="131.982422"/>
      <use xlink:href="#DejaVuSans-67" x="195.458984"/>
      <use xlink:href="#DejaVuSans-65" x="258.935547"/>
      <use xlink:href="#DejaVuSans-74" x="320.458984"/>
      <use xlink:href="#DejaVuSans-20" x="359.667969"/>
      <use xlink:href="#DejaVuSans-55" x="391.455078"/>
      <use xlink:href="#DejaVuSans-6e" x="464.648438"/>
      <use xlink:href="#DejaVuSans-69" x="528.027344"/>
      <use xlink:href="#DejaVuSans-74" x="555.810547"/>
      <use xlink:href="#DejaVuSans-73" x="595.019531"/>
     </g>
    </g>
   </g>
   <g id="line2d_63">
    <path d="M 84.882812 342.058182 
L 96.938935 346.237032 
L 108.995057 350.415881 
L 121.05118 354.594731 
L 133.107302 358.773581 
L 145.163425 362.95243 
L 157.219547 367.13128 
L 169.27567 371.31013 
L 181.331792 375.48898 
L 193.387915 379.667829 
L 205.444037 383.846679 
L 217.500159 388.025529 
L 229.556282 392.204378 
L 241.612404 396.383228 
L 253.668527 400.562078 
L 265.724649 404.740928 
L 277.780772 408.919777 
L 289.836894 413.098627 
L 301.893017 417.277477 
L 313.949139 421.456327 
L 326.005261 425.635176 
L 338.061384 429.814026 
L 350.117506 433.992876 
L 362.173629 438.171725 
L 374.229751 442.350575 
L 386.285874 446.529425 
L 398.341996 450.708275 
L 410.398119 454.887124 
L 422.454241 459.065974 
L 434.510364 463.244824 
L 446.566486 467.423673 
L 458.622608 471.602523 
L 470.678731 475.781373 
L 482.734853 479.960223 
L 494.790976 484.139072 
L 506.847098 488.317922 
L 518.903221 492.496772 
L 530.959343 496.675622 
L 543.015466 500.854471 
L 555.071588 505.033321 
L 567.12771 509.212171 
L 579.183833 513.39102 
L 591.239955 517.56987 
L 603.296078 521.74872 
L 615.3522 525.92757 
L 627.408323 530.106419 
L 639.464445 534.285269 
L 651.520568 538.464119 
L 663.57669 542.642968 
L 675.632812 546.821818 
" clip-path="url(#pce72139528)" style="fill: none; stroke: #008000; stroke-width: 1.5; stroke-linecap: square"/>
   </g>
   <g id="line2d_64">
    <path d="M 55.345313 394.293803 
L 705.170313 394.293803 
" clip-path="url(#pce72139528)" style="fill: none; stroke-dasharray: 7.4,3.2; stroke-dashoffset: 0; stroke: #ff0000; stroke-width: 2"/>
   </g>
   <g id="patch_9">
    <path d="M 55.345313 557.06 
L 55.345313 331.82 
" style="fill: none; stroke: #000000; stroke-width: 0.8; stroke-linejoin: miter; stroke-linecap: square"/>
   </g>
   <g id="patch_10">
    <path d="M 705.170313 557.06 
L 705.170313 331.82 
" style="fill: none; stroke: #000000; stroke-width: 0.8; stroke-linejoin: miter; stroke-linecap: square"/>
   </g>
   <g id="patch_11">
    <path d="M 55.345312 557.06 
L 705.170313 557.06 
" style="fill: none; stroke: #000000; stroke-width: 0.8; stroke-linejoin: miter; stroke-linecap: square"/>
   </g>
   <g id="patch_12">
    <path d="M 55.345312 331.82 
L 705.170313 331.82 
" style="fill: none; stroke: #000000; stroke-width: 0.8; stroke-linejoin: miter; stroke-linecap: square"/>
   </g>
   <g id="text_23">
    <!-- b) Government Budget -->
    <g transform="translate(311.294375 325.82) scale(0.12 -0.12)">
     <defs>
      <path id="DejaVuSans-47" d="M 3809 666 
L 3809 1919 
L 2778 1919 
L 2778 2438 
L 4434 2438 
L 4434 434 
Q 4069 175 3628 42 
Q 3188 -91 2688 -91 
Q 1594 -91 976 548 
Q 359 1188 359 2328 
Q 359 3472 976 4111 
Q 1594 4750 2688 4750 
Q 3144 4750 3555 4637 
Q 3966 4525 4313 4306 
L 4313 3634 
Q 3963 3931 3569 4081 
Q 3175 4231 2741 4231 
Q 1884 4231 1454 3753 
Q 1025 3275 1025 2328 
Q 1025 1384 1454 906 
Q 1884 428 2741 428 
Q 3075 428 3337 486 
Q 3600 544 3809 666 
z
" transform="scale(0.015625)"/>
      <path id="DejaVuSans-76" d="M 191 3500 
L 800 3500 
L 1894 563 
L 2988 3500 
L 3597 3500 
L 2284 0 
L 1503 0 
L 191 3500 
z
" transform="scale(0.015625)"/>
     </defs>
     <use xlink:href="#DejaVuSans-62"/>
     <use xlink:href="#DejaVuSans-29" x="63.476562"/>
     <use xlink:href="#DejaVuSans-20" x="102.490234"/>
     <use xlink:href="#DejaVuSans-47" x="134.277344"/>
     <use xlink:href="#DejaVuSans-6f" x="211.767578"/>
     <use xlink:href="#DejaVuSans-76" x="272.949219"/>
     <use xlink:href="#DejaVuSans-65" x="332.128906"/>
     <use xlink:href="#DejaVuSans-72" x="393.652344"/>
     <use xlink:href="#DejaVuSans-6e" x="433.015625"/>
     <use xlink:href="#DejaVuSans-6d" x="496.394531"/>
     <use xlink:href="#DejaVuSans-65" x="593.806641"/>
     <use xlink:href="#DejaVuSans-6e" x="655.330078"/>
     <use xlink:href="#DejaVuSans-74" x="718.708984"/>
     <use xlink:href="#DejaVuSans-20" x="757.917969"/>
     <use xlink:href="#DejaVuSans-42" x="789.705078"/>
     <use xlink:href="#DejaVuSans-75" x="858.308594"/>
     <use xlink:href="#DejaVuSans-64" x="921.6875"/>
     <use xlink:href="#DejaVuSans-67" x="985.164062"/>
     <use xlink:href="#DejaVuSans-65" x="1048.640625"/>
     <use xlink:href="#DejaVuSans-74" x="1110.164062"/>
    </g>
   </g>
   <g id="legend_2">
    <g id="patch_13">
     <path d="M 542.220313 369.17625 
L 698.170313 369.17625 
Q 700.170313 369.17625 700.170313 367.17625 
L 700.170313 338.82 
Q 700.170313 336.82 698.170313 336.82 
L 542.220313 336.82 
Q 540.220313 336.82 540.220313 338.82 
L 540.220313 367.17625 
Q 540.220313 369.17625 542.220313 369.17625 
z
" style="fill: #ffffff; opacity: 0.8; stroke: #cccccc; stroke-linejoin: miter"/>
    </g>
    <g id="line2d_65">
     <path d="M 544.220313 344.918438 
L 554.220313 344.918438 
L 564.220313 344.918438 
" style="fill: none; stroke: #008000; stroke-width: 1.5; stroke-linecap: square"/>
    </g>
    <g id="text_24">
     <!-- Government Budget -->
     <g transform="translate(572.220313 348.418438) scale(0.1 -0.1)">
      <use xlink:href="#DejaVuSans-47"/>
      <use xlink:href="#DejaVuSans-6f" x="77.490234"/>
      <use xlink:href="#DejaVuSans-76" x="138.671875"/>
      <use xlink:href="#DejaVuSans-65" x="197.851562"/>
      <use xlink:href="#DejaVuSans-72" x="259.375"/>
      <use xlink:href="#DejaVuSans-6e" x="298.738281"/>
      <use xlink:href="#DejaVuSans-6d" x="362.117188"/>
      <use xlink:href="#DejaVuSans-65" x="459.529297"/>
      <use xlink:href="#DejaVuSans-6e" x="521.052734"/>
      <use xlink:href="#DejaVuSans-74" x="584.431641"/>
      <use xlink:href="#DejaVuSans-20" x="623.640625"/>
      <use xlink:href="#DejaVuSans-42" x="655.427734"/>
      <use xlink:href="#DejaVuSans-75" x="724.03125"/>
      <use xlink:href="#DejaVuSans-64" x="787.410156"/>
      <use xlink:href="#DejaVuSans-67" x="850.886719"/>
      <use xlink:href="#DejaVuSans-65" x="914.363281"/>
      <use xlink:href="#DejaVuSans-74" x="975.886719"/>
     </g>
    </g>
    <g id="line2d_66">
     <path d="M 544.220313 359.596563 
L 554.220313 359.596563 
L 564.220313 359.596563 
" style="fill: none; stroke-dasharray: 7.4,3.2; stroke-dashoffset: 0; stroke: #ff0000; stroke-width: 2"/>
    </g>
    <g id="text_25">
     <!-- Budget Deficit Threshold -->
     <g transform="translate(572.220313 363.096563) scale(0.1 -0.1)">
      <defs>
       <path id="DejaVuSans-44" d="M 1259 4147 
L 1259 519 
L 2022 519 
Q 2988 519 3436 956 
Q 3884 1394 3884 2338 
Q 3884 3275 3436 3711 
Q 2988 4147 2022 4147 
L 1259 4147 
z
M 628 4666 
L 1925 4666 
Q 3281 4666 3915 4102 
Q 4550 3538 4550 2338 
Q 4550 1131 3912 565 
Q 3275 0 1925 0 
L 628 0 
L 628 4666 
z
" transform="scale(0.015625)"/>
       <path id="DejaVuSans-54" d="M -19 4666 
L 3928 4666 
L 3928 4134 
L 2272 4134 
L 2272 0 
L 1638 0 
L 1638 4134 
L -19 4134 
L -19 4666 
z
" transform="scale(0.015625)"/>
      </defs>
      <use xlink:href="#DejaVuSans-42"/>
      <use xlink:href="#DejaVuSans-75" x="68.603516"/>
      <use xlink:href="#DejaVuSans-64" x="131.982422"/>
      <use xlink:href="#DejaVuSans-67" x="195.458984"/>
      <use xlink:href="#DejaVuSans-65" x="258.935547"/>
      <use xlink:href="#DejaVuSans-74" x="320.458984"/>
      <use xlink:href="#DejaVuSans-20" x="359.667969"/>
      <use xlink:href="#DejaVuSans-44" x="391.455078"/>
      <use xlink:href="#DejaVuSans-65" x="468.457031"/>
      <use xlink:href="#DejaVuSans-66" x="529.980469"/>
      <use xlink:href="#DejaVuSans-69" x="565.185547"/>
      <use xlink:href="#DejaVuSans-63" x="592.96875"/>
      <use xlink:href="#DejaVuSans-69" x="647.949219"/>
      <use xlink:href="#DejaVuSans-74" x="675.732422"/>
      <use xlink:href="#DejaVuSans-20" x="714.941406"/>
      <use xlink:href="#DejaVuSans-54" x="746.728516"/>
      <use xlink:href="#DejaVuSans-68" x="807.8125"/>
      <use xlink:href="#DejaVuSans-72" x="871.191406"/>
      <use xlink:href="#DejaVuSans-65" x="910.054688"/>
      <use xlink:href="#DejaVuSans-73" x="971.578125"/>
      <use xlink:href="#DejaVuSans-68" x="1023.677734"/>
      <use xlink:href="#DejaVuSans-6f" x="1087.056641"/>
      <use xlink:href="#DejaVuSans-6c" x="1148.238281"/>
      <use xlink:href="#DejaVuSans-64" x="1176.021484"/>
     </g>
    </g>
   </g>
  </g>
  <g id="axes_3">
   <g id="patch_14">
    <path d="M 55.345313 811.96 
L 705.170313 811.96 
L 705.170313 586.72 
L 55.345313 586.72 
z
" style="fill: #ffffff"/>
   </g>
   <g id="matplotlib.axis_5">
    <g id="xtick_13">
     <g id="line2d_67">
      <path d="M 84.882812 811.96 
L 84.882812 586.72 
" clip-path="url(#p719a8fe00d)" style="fill: none; stroke-dasharray: 2.96,1.28; stroke-dashoffset: 0; stroke: #b0b0b0; stroke-opacity: 0.6; stroke-width: 0.8"/>
     </g>
     <g id="line2d_68">
      <g>
       <use xlink:href="#m5a7c05adfe" x="84.882812" y="811.96" style="stroke: #000000; stroke-width: 0.8"/>
      </g>
     </g>
     <g id="text_26">
      <!-- 0 -->
      <g transform="translate(81.701562 826.558437) scale(0.1 -0.1)">
       <use xlink:href="#DejaVuSans-30"/>
      </g>
     </g>
    </g>
    <g id="xtick_14">
     <g id="line2d_69">
      <path d="M 205.444037 811.96 
L 205.444037 586.72 
" clip-path="url(#p719a8fe00d)" style="fill: none; stroke-dasharray: 2.96,1.28; stroke-dashoffset: 0; stroke: #b0b0b0; stroke-opacity: 0.6; stroke-width: 0.8"/>
     </g>
     <g id="line2d_70">
      <g>
       <use xlink:href="#m5a7c05adfe" x="205.444037" y="811.96" style="stroke: #000000; stroke-width: 0.8"/>
      </g>
     </g>
     <g id="text_27">
      <!-- 10 -->
      <g transform="translate(199.081537 826.558437) scale(0.1 -0.1)">
       <use xlink:href="#DejaVuSans-31"/>
       <use xlink:href="#DejaVuSans-30" x="63.623047"/>
      </g>
     </g>
    </g>
    <g id="xtick_15">
     <g id="line2d_71">
      <path d="M 326.005261 811.96 
L 326.005261 586.72 
" clip-path="url(#p719a8fe00d)" style="fill: none; stroke-dasharray: 2.96,1.28; stroke-dashoffset: 0; stroke: #b0b0b0; stroke-opacity: 0.6; stroke-width: 0.8"/>
     </g>
     <g id="line2d_72">
      <g>
       <use xlink:href="#m5a7c05adfe" x="326.005261" y="811.96" style="stroke: #000000; stroke-width: 0.8"/>
      </g>
     </g>
     <g id="text_28">
      <!-- 20 -->
      <g transform="translate(319.642761 826.558437) scale(0.1 -0.1)">
       <use xlink:href="#DejaVuSans-32"/>
       <use xlink:href="#DejaVuSans-30" x="63.623047"/>
      </g>
     </g>
    </g>
    <g id="xtick_16">
     <g id="line2d_73">
      <path d="M 446.566486 811.96 
L 446.566486 586.72 
" clip-path="url(#p719a8fe00d)" style="fill: none; stroke-dasharray: 2.96,1.28; stroke-dashoffset: 0; stroke: #b0b0b0; stroke-opacity: 0.6; stroke-width: 0.8"/>
     </g>
     <g id="line2d_74">
      <g>
       <use xlink:href="#m5a7c05adfe" x="446.566486" y="811.96" style="stroke: #000000; stroke-width: 0.8"/>
      </g>
     </g>
     <g id="text_29">
      <!-- 30 -->
      <g transform="translate(440.203986 826.558437) scale(0.1 -0.1)">
       <defs>
        <path id="DejaVuSans-33" d="M 2597 2516 
Q 3050 2419 3304 2112 
Q 3559 1806 3559 1356 
Q 3559 666 3084 287 
Q 2609 -91 1734 -91 
Q 1441 -91 1130 -33 
Q 819 25 488 141 
L 488 750 
Q 750 597 1062 519 
Q 1375 441 1716 441 
Q 2309 441 2620 675 
Q 2931 909 2931 1356 
Q 2931 1769 2642 2001 
Q 2353 2234 1838 2234 
L 1294 2234 
L 1294 2753 
L 1863 2753 
Q 2328 2753 2575 2939 
Q 2822 3125 2822 3475 
Q 2822 3834 2567 4026 
Q 2313 4219 1838 4219 
Q 1578 4219 1281 4162 
Q 984 4106 628 3988 
L 628 4550 
Q 988 4650 1302 4700 
Q 1616 4750 1894 4750 
Q 2613 4750 3031 4423 
Q 3450 4097 3450 3541 
Q 3450 3153 3228 2886 
Q 3006 2619 2597 2516 
z
" transform="scale(0.015625)"/>
       </defs>
       <use xlink:href="#DejaVuSans-33"/>
       <use xlink:href="#DejaVuSans-30" x="63.623047"/>
      </g>
     </g>
    </g>
    <g id="xtick_17">
     <g id="line2d_75">
      <path d="M 567.12771 811.96 
L 567.12771 586.72 
" clip-path="url(#p719a8fe00d)" style="fill: none; stroke-dasharray: 2.96,1.28; stroke-dashoffset: 0; stroke: #b0b0b0; stroke-opacity: 0.6; stroke-width: 0.8"/>
     </g>
     <g id="line2d_76">
      <g>
       <use xlink:href="#m5a7c05adfe" x="567.12771" y="811.96" style="stroke: #000000; stroke-width: 0.8"/>
      </g>
     </g>
     <g id="text_30">
      <!-- 40 -->
      <g transform="translate(560.76521 826.558437) scale(0.1 -0.1)">
       <use xlink:href="#DejaVuSans-34"/>
       <use xlink:href="#DejaVuSans-30" x="63.623047"/>
      </g>
     </g>
    </g>
    <g id="xtick_18">
     <g id="line2d_77">
      <path d="M 687.688935 811.96 
L 687.688935 586.72 
" clip-path="url(#p719a8fe00d)" style="fill: none; stroke-dasharray: 2.96,1.28; stroke-dashoffset: 0; stroke: #b0b0b0; stroke-opacity: 0.6; stroke-width: 0.8"/>
     </g>
     <g id="line2d_78">
      <g>
       <use xlink:href="#m5a7c05adfe" x="687.688935" y="811.96" style="stroke: #000000; stroke-width: 0.8"/>
      </g>
     </g>
     <g id="text_31">
      <!-- 50 -->
      <g transform="translate(681.326435 826.558437) scale(0.1 -0.1)">
       <use xlink:href="#DejaVuSans-35"/>
       <use xlink:href="#DejaVuSans-30" x="63.623047"/>
      </g>
     </g>
    </g>
    <g id="text_32">
     <!-- Simulation Step -->
     <g transform="translate(340.650781 840.236562) scale(0.1 -0.1)">
      <defs>
       <path id="DejaVuSans-53" d="M 3425 4513 
L 3425 3897 
Q 3066 4069 2747 4153 
Q 2428 4238 2131 4238 
Q 1616 4238 1336 4038 
Q 1056 3838 1056 3469 
Q 1056 3159 1242 3001 
Q 1428 2844 1947 2747 
L 2328 2669 
Q 3034 2534 3370 2195 
Q 3706 1856 3706 1288 
Q 3706 609 3251 259 
Q 2797 -91 1919 -91 
Q 1588 -91 1214 -16 
Q 841 59 441 206 
L 441 856 
Q 825 641 1194 531 
Q 1563 422 1919 422 
Q 2459 422 2753 634 
Q 3047 847 3047 1241 
Q 3047 1584 2836 1778 
Q 2625 1972 2144 2069 
L 1759 2144 
Q 1053 2284 737 2584 
Q 422 2884 422 3419 
Q 422 4038 858 4394 
Q 1294 4750 2059 4750 
Q 2388 4750 2728 4690 
Q 3069 4631 3425 4513 
z
" transform="scale(0.015625)"/>
      </defs>
      <use xlink:href="#DejaVuSans-53"/>
      <use xlink:href="#DejaVuSans-69" x="63.476562"/>
      <use xlink:href="#DejaVuSans-6d" x="91.259766"/>
      <use xlink:href="#DejaVuSans-75" x="188.671875"/>
      <use xlink:href="#DejaVuSans-6c" x="252.050781"/>
      <use xlink:href="#DejaVuSans-61" x="279.833984"/>
      <use xlink:href="#DejaVuSans-74" x="341.113281"/>
      <use xlink:href="#DejaVuSans-69" x="380.322266"/>
      <use xlink:href="#DejaVuSans-6f" x="408.105469"/>
      <use xlink:href="#DejaVuSans-6e" x="469.287109"/>
      <use xlink:href="#DejaVuSans-20" x="532.666016"/>
      <use xlink:href="#DejaVuSans-53" x="564.453125"/>
      <use xlink:href="#DejaVuSans-74" x="627.929688"/>
      <use xlink:href="#DejaVuSans-65" x="667.138672"/>
      <use xlink:href="#DejaVuSans-70" x="728.662109"/>
     </g>
    </g>
   </g>
   <g id="matplotlib.axis_6">
    <g id="ytick_17">
     <g id="line2d_79">
      <path d="M 55.345313 790.653514 
L 705.170313 790.653514 
" clip-path="url(#p719a8fe00d)" style="fill: none; stroke-dasharray: 2.96,1.28; stroke-dashoffset: 0; stroke: #b0b0b0; stroke-opacity: 0.6; stroke-width: 0.8"/>
     </g>
     <g id="line2d_80">
      <g>
       <use xlink:href="#m7bfd161189" x="55.345313" y="790.653514" style="stroke: #000000; stroke-width: 0.8"/>
      </g>
     </g>
     <g id="text_33">
      <!-- 6 -->
      <g transform="translate(41.982813 794.452732) scale(0.1 -0.1)">
       <use xlink:href="#DejaVuSans-36"/>
      </g>
     </g>
    </g>
    <g id="ytick_18">
     <g id="line2d_81">
      <path d="M 55.345313 762.982752 
L 705.170313 762.982752 
" clip-path="url(#p719a8fe00d)" style="fill: none; stroke-dasharray: 2.96,1.28; stroke-dashoffset: 0; stroke: #b0b0b0; stroke-opacity: 0.6; stroke-width: 0.8"/>
     </g>
     <g id="line2d_82">
      <g>
       <use xlink:href="#m7bfd161189" x="55.345313" y="762.982752" style="stroke: #000000; stroke-width: 0.8"/>
      </g>
     </g>
     <g id="text_34">
      <!-- 8 -->
      <g transform="translate(41.982813 766.781971) scale(0.1 -0.1)">
       <use xlink:href="#DejaVuSans-38"/>
      </g>
     </g>
    </g>
    <g id="ytick_19">
     <g id="line2d_83">
      <path d="M 55.345313 735.31199 
L 705.170313 735.31199 
" clip-path="url(#p719a8fe00d)" style="fill: none; stroke-dasharray: 2.96,1.28; stroke-dashoffset: 0; stroke: #b0b0b0; stroke-opacity: 0.6; stroke-width: 0.8"/>
     </g>
     <g id="line2d_84">
      <g>
       <use xlink:href="#m7bfd161189" x="55.345313" y="735.31199" style="stroke: #000000; stroke-width: 0.8"/>
      </g>
     </g>
     <g id="text_35">
      <!-- 10 -->
      <g transform="translate(35.620313 739.111209) scale(0.1 -0.1)">
       <use xlink:href="#DejaVuSans-31"/>
       <use xlink:href="#DejaVuSans-30" x="63.623047"/>
      </g>
     </g>
    </g>
    <g id="ytick_20">
     <g id="line2d_85">
      <path d="M 55.345313 707.641229 
L 705.170313 707.641229 
" clip-path="url(#p719a8fe00d)" style="fill: none; stroke-dasharray: 2.96,1.28; stroke-dashoffset: 0; stroke: #b0b0b0; stroke-opacity: 0.6; stroke-width: 0.8"/>
     </g>
     <g id="line2d_86">
      <g>
       <use xlink:href="#m7bfd161189" x="55.345313" y="707.641229" style="stroke: #000000; stroke-width: 0.8"/>
      </g>
     </g>
     <g id="text_36">
      <!-- 12 -->
      <g transform="translate(35.620313 711.440447) scale(0.1 -0.1)">
       <use xlink:href="#DejaVuSans-31"/>
       <use xlink:href="#DejaVuSans-32" x="63.623047"/>
      </g>
     </g>
    </g>
    <g id="ytick_21">
     <g id="line2d_87">
      <path d="M 55.345313 679.970467 
L 705.170313 679.970467 
" clip-path="url(#p719a8fe00d)" style="fill: none; stroke-dasharray: 2.96,1.28; stroke-dashoffset: 0; stroke: #b0b0b0; stroke-opacity: 0.6; stroke-width: 0.8"/>
     </g>
     <g id="line2d_88">
      <g>
       <use xlink:href="#m7bfd161189" x="55.345313" y="679.970467" style="stroke: #000000; stroke-width: 0.8"/>
      </g>
     </g>
     <g id="text_37">
      <!-- 14 -->
      <g transform="translate(35.620313 683.769686) scale(0.1 -0.1)">
       <use xlink:href="#DejaVuSans-31"/>
       <use xlink:href="#DejaVuSans-34" x="63.623047"/>
      </g>
     </g>
    </g>
    <g id="ytick_22">
     <g id="line2d_89">
      <path d="M 55.345313 652.299705 
L 705.170313 652.299705 
" clip-path="url(#p719a8fe00d)" style="fill: none; stroke-dasharray: 2.96,1.28; stroke-dashoffset: 0; stroke: #b0b0b0; stroke-opacity: 0.6; stroke-width: 0.8"/>
     </g>
     <g id="line2d_90">
      <g>
       <use xlink:href="#m7bfd161189" x="55.345313" y="652.299705" style="stroke: #000000; stroke-width: 0.8"/>
      </g>
     </g>
     <g id="text_38">
      <!-- 16 -->
      <g transform="translate(35.620313 656.098924) scale(0.1 -0.1)">
       <use xlink:href="#DejaVuSans-31"/>
       <use xlink:href="#DejaVuSans-36" x="63.623047"/>
      </g>
     </g>
    </g>
    <g id="ytick_23">
     <g id="line2d_91">
      <path d="M 55.345313 624.628943 
L 705.170313 624.628943 
" clip-path="url(#p719a8fe00d)" style="fill: none; stroke-dasharray: 2.96,1.28; stroke-dashoffset: 0; stroke: #b0b0b0; stroke-opacity: 0.6; stroke-width: 0.8"/>
     </g>
     <g id="line2d_92">
      <g>
       <use xlink:href="#m7bfd161189" x="55.345313" y="624.628943" style="stroke: #000000; stroke-width: 0.8"/>
      </g>
     </g>
     <g id="text_39">
      <!-- 18 -->
      <g transform="translate(35.620313 628.428162) scale(0.1 -0.1)">
       <use xlink:href="#DejaVuSans-31"/>
       <use xlink:href="#DejaVuSans-38" x="63.623047"/>
      </g>
     </g>
    </g>
    <g id="ytick_24">
     <g id="line2d_93">
      <path d="M 55.345313 596.958182 
L 705.170313 596.958182 
" clip-path="url(#p719a8fe00d)" style="fill: none; stroke-dasharray: 2.96,1.28; stroke-dashoffset: 0; stroke: #b0b0b0; stroke-opacity: 0.6; stroke-width: 0.8"/>
     </g>
     <g id="line2d_94">
      <g>
       <use xlink:href="#m7bfd161189" x="55.345313" y="596.958182" style="stroke: #000000; stroke-width: 0.8"/>
      </g>
     </g>
     <g id="text_40">
      <!-- 20 -->
      <g transform="translate(35.620313 600.757401) scale(0.1 -0.1)">
       <use xlink:href="#DejaVuSans-32"/>
       <use xlink:href="#DejaVuSans-30" x="63.623047"/>
      </g>
     </g>
    </g>
    <g id="text_41">
     <!-- Percentage (%) -->
     <g transform="translate(29.540625 737.704062) rotate(-90) scale(0.1 -0.1)">
      <defs>
       <path id="DejaVuSans-28" d="M 1984 4856 
Q 1566 4138 1362 3434 
Q 1159 2731 1159 2009 
Q 1159 1288 1364 580 
Q 1569 -128 1984 -844 
L 1484 -844 
Q 1016 -109 783 600 
Q 550 1309 550 2009 
Q 550 2706 781 3412 
Q 1013 4119 1484 4856 
L 1984 4856 
z
" transform="scale(0.015625)"/>
       <path id="DejaVuSans-25" d="M 4653 2053 
Q 4381 2053 4226 1822 
Q 4072 1591 4072 1178 
Q 4072 772 4226 539 
Q 4381 306 4653 306 
Q 4919 306 5073 539 
Q 5228 772 5228 1178 
Q 5228 1588 5073 1820 
Q 4919 2053 4653 2053 
z
M 4653 2450 
Q 5147 2450 5437 2106 
Q 5728 1763 5728 1178 
Q 5728 594 5436 251 
Q 5144 -91 4653 -91 
Q 4153 -91 3862 251 
Q 3572 594 3572 1178 
Q 3572 1766 3864 2108 
Q 4156 2450 4653 2450 
z
M 1428 4353 
Q 1159 4353 1004 4120 
Q 850 3888 850 3481 
Q 850 3069 1003 2837 
Q 1156 2606 1428 2606 
Q 1700 2606 1854 2837 
Q 2009 3069 2009 3481 
Q 2009 3884 1853 4118 
Q 1697 4353 1428 4353 
z
M 4250 4750 
L 4750 4750 
L 1831 -91 
L 1331 -91 
L 4250 4750 
z
M 1428 4750 
Q 1922 4750 2215 4408 
Q 2509 4066 2509 3481 
Q 2509 2891 2217 2550 
Q 1925 2209 1428 2209 
Q 931 2209 642 2551 
Q 353 2894 353 3481 
Q 353 4063 643 4406 
Q 934 4750 1428 4750 
z
" transform="scale(0.015625)"/>
      </defs>
      <use xlink:href="#DejaVuSans-50"/>
      <use xlink:href="#DejaVuSans-65" x="56.677734"/>
      <use xlink:href="#DejaVuSans-72" x="118.201172"/>
      <use xlink:href="#DejaVuSans-63" x="157.064453"/>
      <use xlink:href="#DejaVuSans-65" x="212.044922"/>
      <use xlink:href="#DejaVuSans-6e" x="273.568359"/>
      <use xlink:href="#DejaVuSans-74" x="336.947266"/>
      <use xlink:href="#DejaVuSans-61" x="376.15625"/>
      <use xlink:href="#DejaVuSans-67" x="437.435547"/>
      <use xlink:href="#DejaVuSans-65" x="500.912109"/>
      <use xlink:href="#DejaVuSans-20" x="562.435547"/>
      <use xlink:href="#DejaVuSans-28" x="594.222656"/>
      <use xlink:href="#DejaVuSans-25" x="633.236328"/>
      <use xlink:href="#DejaVuSans-29" x="728.255859"/>
     </g>
    </g>
   </g>
   <g id="line2d_95">
    <path d="M 84.882812 762.982752 
L 96.938935 765.749828 
L 108.995057 768.516904 
L 121.05118 771.28398 
L 133.107302 774.051057 
L 145.163425 776.818133 
L 157.219547 779.585209 
L 169.27567 782.352285 
L 181.331792 785.119361 
L 193.387915 787.886437 
L 205.444037 790.653514 
L 217.500159 793.42059 
L 229.556282 796.187666 
L 241.612404 798.954742 
L 253.668527 801.721818 
L 265.724649 693.805848 
L 277.780772 682.737543 
L 289.836894 671.669238 
L 301.893017 660.600934 
L 313.949139 649.532629 
L 326.005261 638.464324 
L 338.061384 627.39602 
L 350.117506 616.327715 
L 362.173629 605.25941 
L 374.229751 596.958182 
L 386.285874 596.958182 
L 398.341996 596.958182 
L 410.398119 596.958182 
L 422.454241 596.958182 
L 434.510364 596.958182 
L 446.566486 596.958182 
L 458.622608 596.958182 
L 470.678731 596.958182 
L 482.734853 596.958182 
L 494.790976 596.958182 
L 506.847098 596.958182 
L 518.903221 596.958182 
L 530.959343 596.958182 
L 543.015466 596.958182 
L 555.071588 596.958182 
L 567.12771 596.958182 
L 579.183833 596.958182 
L 591.239955 596.958182 
L 603.296078 596.958182 
L 615.3522 596.958182 
L 627.408323 596.958182 
L 639.464445 596.958182 
L 651.520568 596.958182 
L 663.57669 596.958182 
L 675.632812 596.958182 
" clip-path="url(#p719a8fe00d)" style="fill: none; stroke: #800080; stroke-width: 1.5; stroke-linecap: square"/>
   </g>
   <g id="patch_15">
    <path d="M 55.345313 811.96 
L 55.345313 586.72 
" style="fill: none; stroke: #000000; stroke-width: 0.8; stroke-linejoin: miter; stroke-linecap: square"/>
   </g>
   <g id="patch_16">
    <path d="M 705.170313 811.96 
L 705.170313 586.72 
" style="fill: none; stroke: #000000; stroke-width: 0.8; stroke-linejoin: miter; stroke-linecap: square"/>
   </g>
   <g id="patch_17">
    <path d="M 55.345312 811.96 
L 705.170313 811.96 
" style="fill: none; stroke: #000000; stroke-width: 0.8; stroke-linejoin: miter; stroke-linecap: square"/>
   </g>
   <g id="patch_18">
    <path d="M 55.345312 586.72 
L 705.170313 586.72 
" style="fill: none; stroke: #000000; stroke-width: 0.8; stroke-linejoin: miter; stroke-linecap: square"/>
   </g>
   <g id="text_42">
    <!-- c) Unemployment Rate -->
    <g transform="translate(310.929688 580.72) scale(0.12 -0.12)">
     <defs>
      <path id="DejaVuSans-52" d="M 2841 2188 
Q 3044 2119 3236 1894 
Q 3428 1669 3622 1275 
L 4263 0 
L 3584 0 
L 2988 1197 
Q 2756 1666 2539 1819 
Q 2322 1972 1947 1972 
L 1259 1972 
L 1259 0 
L 628 0 
L 628 4666 
L 2053 4666 
Q 2853 4666 3247 4331 
Q 3641 3997 3641 3322 
Q 3641 2881 3436 2590 
Q 3231 2300 2841 2188 
z
M 1259 4147 
L 1259 2491 
L 2053 2491 
Q 2509 2491 2742 2702 
Q 2975 2913 2975 3322 
Q 2975 3731 2742 3939 
Q 2509 4147 2053 4147 
L 1259 4147 
z
" transform="scale(0.015625)"/>
     </defs>
     <use xlink:href="#DejaVuSans-63"/>
     <use xlink:href="#DejaVuSans-29" x="54.980469"/>
     <use xlink:href="#DejaVuSans-20" x="93.994141"/>
     <use xlink:href="#DejaVuSans-55" x="125.78125"/>
     <use xlink:href="#DejaVuSans-6e" x="198.974609"/>
     <use xlink:href="#DejaVuSans-65" x="262.353516"/>
     <use xlink:href="#DejaVuSans-6d" x="323.876953"/>
     <use xlink:href="#DejaVuSans-70" x="421.289062"/>
     <use xlink:href="#DejaVuSans-6c" x="484.765625"/>
     <use xlink:href="#DejaVuSans-6f" x="512.548828"/>
     <use xlink:href="#DejaVuSans-79" x="573.730469"/>
     <use xlink:href="#DejaVuSans-6d" x="632.910156"/>
     <use xlink:href="#DejaVuSans-65" x="730.322266"/>
     <use xlink:href="#DejaVuSans-6e" x="791.845703"/>
     <use xlink:href="#DejaVuSans-74" x="855.224609"/>
     <use xlink:href="#DejaVuSans-20" x="894.433594"/>
     <use xlink:href="#DejaVuSans-52" x="926.220703"/>
     <use xlink:href="#DejaVuSans-61" x="993.453125"/>
     <use xlink:href="#DejaVuSans-74" x="1054.732422"/>
     <use xlink:href="#DejaVuSans-65" x="1093.941406"/>
    </g>
   </g>
   <g id="legend_3">
    <g id="patch_19">
     <path d="M 62.345313 609.398125 
L 197.314063 609.398125 
Q 199.314063 609.398125 199.314063 607.398125 
L 199.314063 593.72 
Q 199.314063 591.72 197.314063 591.72 
L 62.345313 591.72 
Q 60.345313 591.72 60.345313 593.72 
L 60.345313 607.398125 
Q 60.345313 609.398125 62.345313 609.398125 
z
" style="fill: #ffffff; opacity: 0.8; stroke: #cccccc; stroke-linejoin: miter"/>
    </g>
    <g id="line2d_96">
     <path d="M 64.345313 599.818437 
L 74.345313 599.818437 
L 84.345313 599.818437 
" style="fill: none; stroke: #800080; stroke-width: 1.5; stroke-linecap: square"/>
    </g>
    <g id="text_43">
     <!-- Unemployment Rate -->
     <g transform="translate(92.345313 603.318437) scale(0.1 -0.1)">
      <use xlink:href="#DejaVuSans-55"/>
      <use xlink:href="#DejaVuSans-6e" x="73.193359"/>
      <use xlink:href="#DejaVuSans-65" x="136.572266"/>
      <use xlink:href="#DejaVuSans-6d" x="198.095703"/>
      <use xlink:href="#DejaVuSans-70" x="295.507812"/>
      <use xlink:href="#DejaVuSans-6c" x="358.984375"/>
      <use xlink:href="#DejaVuSans-6f" x="386.767578"/>
      <use xlink:href="#DejaVuSans-79" x="447.949219"/>
      <use xlink:href="#DejaVuSans-6d" x="507.128906"/>
      <use xlink:href="#DejaVuSans-65" x="604.541016"/>
      <use xlink:href="#DejaVuSans-6e" x="666.064453"/>
      <use xlink:href="#DejaVuSans-74" x="729.443359"/>
      <use xlink:href="#DejaVuSans-20" x="768.652344"/>
      <use xlink:href="#DejaVuSans-52" x="800.439453"/>
      <use xlink:href="#DejaVuSans-61" x="867.671875"/>
      <use xlink:href="#DejaVuSans-74" x="928.951172"/>
      <use xlink:href="#DejaVuSans-65" x="968.160156"/>
     </g>
    </g>
   </g>
  </g>
  <g id="text_44">
   <!-- Figure 2: Time-Series for Fuel Subsidy Reallocation Policy -->
   <g transform="translate(128.097813 19.3575) scale(0.16 -0.16)">
    <defs>
     <path id="DejaVuSans-46" d="M 628 4666 
L 3309 4666 
L 3309 4134 
L 1259 4134 
L 1259 2759 
L 3109 2759 
L 3109 2228 
L 1259 2228 
L 1259 0 
L 628 0 
L 628 4666 
z
" transform="scale(0.015625)"/>
     <path id="DejaVuSans-3a" d="M 750 794 
L 1409 794 
L 1409 0 
L 750 0 
L 750 794 
z
M 750 3309 
L 1409 3309 
L 1409 2516 
L 750 2516 
L 750 3309 
z
" transform="scale(0.015625)"/>
     <path id="DejaVuSans-2d" d="M 313 2009 
L 1997 2009 
L 1997 1497 
L 313 1497 
L 313 2009 
z
" transform="scale(0.015625)"/>
    </defs>
    <use xlink:href="#DejaVuSans-46"/>
    <use xlink:href="#DejaVuSans-69" x="50.269531"/>
    <use xlink:href="#DejaVuSans-67" x="78.052734"/>
    <use xlink:href="#DejaVuSans-75" x="141.529297"/>
    <use xlink:href="#DejaVuSans-72" x="204.908203"/>
    <use xlink:href="#DejaVuSans-65" x="243.771484"/>
    <use xlink:href="#DejaVuSans-20" x="305.294922"/>
    <use xlink:href="#DejaVuSans-32" x="337.082031"/>
    <use xlink:href="#DejaVuSans-3a" x="400.705078"/>
    <use xlink:href="#DejaVuSans-20" x="434.396484"/>
    <use xlink:href="#DejaVuSans-54" x="466.183594"/>
    <use xlink:href="#DejaVuSans-69" x="524.142578"/>
    <use xlink:href="#DejaVuSans-6d" x="551.925781"/>
    <use xlink:href="#DejaVuSans-65" x="649.337891"/>
    <use xlink:href="#DejaVuSans-2d" x="710.861328"/>
    <use xlink:href="#DejaVuSans-53" x="746.945312"/>
    <use xlink:href="#DejaVuSans-65" x="810.421875"/>
    <use xlink:href="#DejaVuSans-72" x="871.945312"/>
    <use xlink:href="#DejaVuSans-69" x="913.058594"/>
    <use xlink:href="#DejaVuSans-65" x="940.841797"/>
    <use xlink:href="#DejaVuSans-73" x="1002.365234"/>
    <use xlink:href="#DejaVuSans-20" x="1054.464844"/>
    <use xlink:href="#DejaVuSans-66" x="1086.251953"/>
    <use xlink:href="#DejaVuSans-6f" x="1121.457031"/>
    <use xlink:href="#DejaVuSans-72" x="1182.638672"/>
    <use xlink:href="#DejaVuSans-20" x="1223.751953"/>
    <use xlink:href="#DejaVuSans-46" x="1255.539062"/>
    <use xlink:href="#DejaVuSans-75" x="1307.558594"/>
    <use xlink:href="#DejaVuSans-65" x="1370.9375"/>
    <use xlink:href="#DejaVuSans-6c" x="1432.460938"/>
    <use xlink:href="#DejaVuSans-20" x="1460.244141"/>
    <use xlink:href="#DejaVuSans-53" x="1492.03125"/>
    <use xlink:href="#DejaVuSans-75" x="1555.507812"/>
    <use xlink:href="#DejaVuSans-62" x="1618.886719"/>
    <use xlink:href="#DejaVuSans-73" x="1682.363281"/>
    <use xlink:href="#DejaVuSans-69" x="1734.462891"/>
    <use xlink:href="#DejaVuSans-64" x="1762.246094"/>
    <use xlink:href="#DejaVuSans-79" x="1825.722656"/>
    <use xlink:href="#DejaVuSans-20" x="1884.902344"/>
    <use xlink:href="#DejaVuSans-52" x="1916.689453"/>
    <use xlink:href="#DejaVuSans-65" x="1981.671875"/>
    <use xlink:href="#DejaVuSans-61" x="2043.195312"/>
    <use xlink:href="#DejaVuSans-6c" x="2104.474609"/>
    <use xlink:href="#DejaVuSans-6c" x="2132.257812"/>
    <use xlink:href="#DejaVuSans-6f" x="2160.041016"/>
    <use xlink:href="#DejaVuSans-63" x="2221.222656"/>
    <use xlink:href="#DejaVuSans-61" x="2276.203125"/>
    <use xlink:href="#DejaVuSans-74" x="2337.482422"/>
    <use xlink:href="#DejaVuSans-69" x="2376.691406"/>
    <use xlink:href="#DejaVuSans-6f" x="2404.474609"/>
    <use xlink:href="#DejaVuSans-6e" x="2465.65625"/>
    <use xlink:href="#DejaVuSans-20" x="2529.035156"/>
    <use xlink:href="#DejaVuSans-50" x="2560.822266"/>
    <use xlink:href="#DejaVuSans-6f" x="2617.5"/>
    <use xlink:href="#DejaVuSans-6c" x="2678.681641"/>
    <use xlink:href="#DejaVuSans-69" x="2706.464844"/>
    <use xlink:href="#DejaVuSans-63" x="2734.248047"/>
    <use xlink:href="#DejaVuSans-79" x="2789.228516"/>
   </g>
  </g>
 </g>
 <defs>
  <clipPath id="pc49a695ded">
   <rect x="55.345313" y="76.92" width="649.825" height="225.24"/>
  </clipPath>
  <clipPath id="pce72139528">
   <rect x="55.345313" y="331.82" width="649.825" height="225.24"/>
  </clipPath>
  <clipPath id="p719a8fe00d">
   <rect x="55.345313" y="586.72" width="649.825" height="225.24"/>
  </clipPath>
 </defs>
</svg>
